<svg width="227" height="161" viewBox="0 0 227 161" fill="none" xmlns="http://www.w3.org/2000/svg">
<path d="M9.09375 143V144.719H3.53125V155H1.6875V143H9.09375ZM16.4052 159.5V143H18.1864V144.906H18.4052C18.5406 144.698 18.7281 144.432 18.9677 144.109C19.2124 143.781 19.5614 143.49 20.0145 143.234C20.4729 142.974 21.0927 142.844 21.8739 142.844C22.8843 142.844 23.7749 143.096 24.5458 143.602C25.3166 144.107 25.9182 144.823 26.3505 145.75C26.7828 146.677 26.9989 147.771 26.9989 149.031C26.9989 150.302 26.7828 151.404 26.3505 152.336C25.9182 153.263 25.3192 153.982 24.5536 154.492C23.788 154.997 22.9052 155.25 21.9052 155.25C21.1343 155.25 20.5171 155.122 20.0536 154.867C19.5901 154.607 19.2333 154.312 18.9833 153.984C18.7333 153.651 18.5406 153.375 18.4052 153.156H18.2489V159.5H16.4052ZM18.2177 149C18.2177 149.906 18.3505 150.706 18.6161 151.398C18.8817 152.086 19.2697 152.625 19.7802 153.016C20.2906 153.401 20.9156 153.594 21.6552 153.594C22.426 153.594 23.0692 153.391 23.5848 152.984C24.1057 152.573 24.4963 152.021 24.7567 151.328C25.0223 150.63 25.1552 149.854 25.1552 149C25.1552 148.156 25.0249 147.396 24.7645 146.719C24.5093 146.036 24.1213 145.497 23.6005 145.102C23.0848 144.701 22.4364 144.5 21.6552 144.5C20.9052 144.5 20.2749 144.69 19.7645 145.07C19.2541 145.445 18.8687 145.971 18.6083 146.648C18.3479 147.32 18.2177 148.104 18.2177 149ZM35.1892 159.5C34.8767 159.5 34.5981 159.474 34.3533 159.422C34.1085 159.375 33.9392 159.328 33.8455 159.281L34.3142 157.656C34.7621 157.771 35.158 157.813 35.5017 157.781C35.8455 157.75 36.1502 157.596 36.4158 157.32C36.6866 157.049 36.934 156.609 37.158 156L37.5017 155.063L33.0642 143H35.0642L38.3767 152.562H38.5017L41.8142 143H43.8142L38.7205 156.75C38.4913 157.37 38.2074 157.883 37.8689 158.289C37.5304 158.701 37.1371 159.005 36.6892 159.203C36.2465 159.401 35.7465 159.5 35.1892 159.5ZM50.1178 151.937H52.0866C52.1282 152.479 52.373 152.891 52.8209 153.172C53.2741 153.453 53.8626 153.594 54.5866 153.594C55.3261 153.594 55.959 153.443 56.485 153.141C57.011 152.833 57.2741 152.339 57.2741 151.656C57.2741 151.255 57.1751 150.906 56.9772 150.609C56.7793 150.307 56.5006 150.073 56.1413 149.906C55.7819 149.74 55.3574 149.656 54.8678 149.656H52.8053V148H54.8678C55.6022 148 56.1439 147.833 56.4928 147.5C56.847 147.167 57.0241 146.75 57.0241 146.25C57.0241 145.714 56.834 145.284 56.4538 144.961C56.0735 144.633 55.5345 144.469 54.8366 144.469C54.1334 144.469 53.5475 144.628 53.0788 144.945C52.61 145.258 52.3626 145.661 52.3366 146.156H50.3991C50.4199 145.51 50.6178 144.94 50.9928 144.445C51.3678 143.945 51.8782 143.555 52.5241 143.273C53.1699 142.987 53.9095 142.844 54.7428 142.844C55.5866 142.844 56.3183 142.992 56.9381 143.289C57.5631 143.581 58.0449 143.979 58.3834 144.484C58.7272 144.984 58.8991 145.552 58.8991 146.187C58.8991 146.865 58.709 147.411 58.3288 147.828C57.9485 148.245 57.472 148.542 56.8991 148.719V148.844C57.3522 148.875 57.7454 149.021 58.0788 149.281C58.4173 149.536 58.6803 149.872 58.8678 150.289C59.0553 150.701 59.1491 151.156 59.1491 151.656C59.1491 152.385 58.9538 153.021 58.5631 153.562C58.1725 154.099 57.636 154.516 56.9538 154.812C56.2715 155.104 55.4928 155.25 54.6178 155.25C53.7689 155.25 53.0084 155.112 52.3366 154.836C51.6647 154.555 51.1308 154.167 50.735 153.672C50.3444 153.172 50.1386 152.594 50.1178 151.937ZM68.2027 152.281L73.9839 143H76.1089V155H74.2652V145.719L68.5152 155H66.3589V143H68.2027V152.281ZM92.1371 148.156V149.875H85.5121V148.156H92.1371ZM85.9496 143V155H84.1059V143H85.9496ZM93.5434 143V155H91.6996V143H93.5434ZM106.406 155.25C105.281 155.25 104.312 154.984 103.499 154.453C102.687 153.922 102.062 153.19 101.624 152.258C101.187 151.326 100.968 150.26 100.968 149.062C100.968 147.844 101.192 146.768 101.64 145.836C102.093 144.898 102.723 144.167 103.531 143.641C104.343 143.109 105.291 142.844 106.374 142.844C107.218 142.844 107.978 143 108.656 143.312C109.333 143.625 109.887 144.062 110.32 144.625C110.752 145.187 111.02 145.844 111.124 146.594H109.281C109.14 146.047 108.827 145.562 108.343 145.141C107.864 144.714 107.218 144.5 106.406 144.5C105.687 144.5 105.057 144.687 104.515 145.062C103.978 145.432 103.559 145.956 103.257 146.633C102.96 147.305 102.812 148.094 102.812 149C102.812 149.927 102.958 150.734 103.249 151.422C103.546 152.109 103.963 152.643 104.499 153.023C105.041 153.404 105.676 153.594 106.406 153.594C106.885 153.594 107.32 153.51 107.71 153.344C108.101 153.177 108.432 152.938 108.702 152.625C108.973 152.312 109.166 151.937 109.281 151.5H111.124C111.02 152.208 110.762 152.846 110.351 153.414C109.945 153.977 109.406 154.424 108.734 154.758C108.067 155.086 107.291 155.25 106.406 155.25ZM118.44 155V143H120.283V148.219H121.502L125.815 143H128.19L123.346 148.781L128.252 155H125.877L121.94 149.937H120.283V155H118.44ZM136.72 152.281L142.501 143H144.626V155H142.782V145.719L137.032 155H134.876V143H136.72V152.281ZM154.467 152.281L160.248 143H162.373V155H160.529V145.719L154.779 155H152.623V143H154.467V152.281ZM159.029 139H160.748C160.748 139.844 160.456 140.534 159.873 141.07C159.29 141.607 158.498 141.875 157.498 141.875C156.514 141.875 155.73 141.607 155.146 141.07C154.568 140.534 154.279 139.844 154.279 139H155.998C155.998 139.406 156.11 139.763 156.334 140.07C156.563 140.378 156.951 140.531 157.498 140.531C158.045 140.531 158.435 140.378 158.67 140.07C158.909 139.763 159.029 139.406 159.029 139ZM190.427 143V155H188.584V143H190.427ZM189.709 148.719V150.437C189.292 150.594 188.878 150.732 188.466 150.852C188.055 150.966 187.623 151.057 187.17 151.125C186.716 151.187 186.219 151.219 185.677 151.219C184.318 151.219 183.227 150.852 182.404 150.117C181.586 149.383 181.177 148.281 181.177 146.812V142.969H183.021V146.812C183.021 147.427 183.138 147.932 183.373 148.328C183.607 148.724 183.925 149.018 184.326 149.211C184.727 149.404 185.177 149.5 185.677 149.5C186.459 149.5 187.164 149.43 187.795 149.289C188.43 149.143 189.068 148.953 189.709 148.719ZM201.961 155.281C201.201 155.281 200.511 155.138 199.891 154.852C199.271 154.56 198.779 154.141 198.415 153.594C198.05 153.042 197.868 152.375 197.868 151.594C197.868 150.906 198.003 150.349 198.274 149.922C198.545 149.49 198.907 149.151 199.36 148.906C199.813 148.661 200.313 148.479 200.86 148.359C201.412 148.234 201.967 148.135 202.524 148.063C203.253 147.969 203.844 147.898 204.297 147.852C204.756 147.799 205.089 147.714 205.297 147.594C205.511 147.474 205.618 147.266 205.618 146.969V146.906C205.618 146.135 205.407 145.536 204.985 145.109C204.568 144.682 203.935 144.469 203.086 144.469C202.206 144.469 201.516 144.661 201.016 145.047C200.516 145.432 200.165 145.844 199.961 146.281L198.211 145.656C198.524 144.927 198.941 144.359 199.461 143.953C199.988 143.542 200.56 143.255 201.18 143.094C201.805 142.927 202.42 142.844 203.024 142.844C203.409 142.844 203.852 142.891 204.352 142.984C204.857 143.073 205.344 143.258 205.813 143.539C206.287 143.82 206.68 144.245 206.993 144.812C207.305 145.38 207.461 146.141 207.461 147.094V155H205.618V153.375H205.524C205.399 153.635 205.191 153.914 204.899 154.211C204.607 154.508 204.219 154.76 203.735 154.969C203.251 155.177 202.659 155.281 201.961 155.281ZM202.243 153.625C202.972 153.625 203.586 153.482 204.086 153.195C204.592 152.909 204.972 152.539 205.227 152.086C205.488 151.633 205.618 151.156 205.618 150.656V148.969C205.54 149.062 205.368 149.148 205.102 149.227C204.842 149.299 204.54 149.365 204.196 149.422C203.857 149.474 203.527 149.521 203.204 149.562C202.886 149.599 202.628 149.63 202.43 149.656C201.951 149.719 201.503 149.82 201.086 149.961C200.675 150.096 200.342 150.302 200.086 150.578C199.836 150.849 199.711 151.219 199.711 151.687C199.711 152.328 199.948 152.812 200.422 153.141C200.902 153.464 201.508 153.625 202.243 153.625ZM217.29 152.281L223.072 143H225.197V155H223.353V145.719L217.603 155H215.447V143H217.29V152.281ZM221.853 139H223.572C223.572 139.844 223.28 140.534 222.697 141.07C222.113 141.607 221.322 141.875 220.322 141.875C219.337 141.875 218.553 141.607 217.97 141.07C217.392 140.534 217.103 139.844 217.103 139H218.822C218.822 139.406 218.934 139.763 219.158 140.07C219.387 140.378 219.775 140.531 220.322 140.531C220.869 140.531 221.259 140.378 221.494 140.07C221.733 139.763 221.853 139.406 221.853 139Z" fill="black"/>
<path d="M3 120V89.5L16.5 107.5L30 89.5V120M60 91H40.5V105.5M60 120H40.5V105.5M40.5 105.5H54.5M89 94.5C83.5375 90.4654 80.4726 89.766 75 92C75 91 57 105 68.5 117C80 129 99 107.5 90.5 107.5C82 107.5 80 107.5 80 107.5M149.5 106.5C159 110.5 154.5 120 149.5 120C144.5 120 134 120 134 120V106M149.5 106.5L134 106M149.5 106.5C154.75 99.5 155.137 96.4126 149.5 92H134V106M161.5 120C162.002 116.084 162.615 112.587 163.314 109.5M185.5 120C185.18 116.111 184.713 112.608 184.127 109.5M184.127 109.5C179.767 86.3672 168.84 85.1203 163.314 109.5M184.127 109.5H163.314M194 120V110.5M200 110.5C217 104 220.048 97.6374 207 92H194V110.5M200 110.5H194M200 110.5C205.835 118.334 209.542 120.483 217 120M223.5 92V120M97.552 107.5C99.1039 126.5 124.931 126.691 126.052 107.5C127.173 88.3088 96 88.5 97.552 107.5Z" stroke="black" stroke-width="2" stroke-linecap="round" stroke-linejoin="round"/>
<path d="M88.0983 80.4539C88.1706 81.0014 88.6731 81.3866 89.2207 81.3143C89.7682 81.2419 90.1534 80.7394 90.081 80.1919L88.0983 80.4539ZM96.3749 30.7288L96.5203 31.7182L96.5498 31.7138L96.5791 31.7077L96.3749 30.7288ZM97.8749 25.7288L98.7588 25.2612L98.7347 25.2155L98.7059 25.1726L97.8749 25.7288ZM105.09 26.8228L104.256 26.2707L104.254 26.2741L105.09 26.8228ZM105.09 31.8228L105.575 30.9487L105.571 30.9463L105.09 31.8228ZM116.59 70.2957C116.575 70.8478 117.01 71.3076 117.562 71.3227C118.114 71.3379 118.574 70.9026 118.589 70.3505L116.59 70.2957ZM82.5896 42.3231L83.5809 42.191L82.5896 42.3231ZM121.09 31.3231L120.501 32.1316L120.557 32.1721L120.617 32.2045L121.09 31.3231ZM126.59 29.3231L125.664 29.7015L125.681 29.7437L125.702 29.7842L126.59 29.3231ZM135.09 29.3231L135.871 29.9478L135.883 29.9323L135.895 29.9163L135.09 29.3231ZM126.09 32.3231L126.313 33.2978L126.438 33.2693L126.551 33.2103L126.09 32.3231ZM139.59 36.3231L139.904 35.3737L139.846 35.3545L139.786 35.3425L139.59 36.3231ZM146.09 41.3231L147.01 40.9322L146.998 40.9036L146.984 40.8759L146.09 41.3231ZM145.095 80.2186C145.037 80.7679 145.436 81.2598 145.985 81.3174C146.535 81.375 147.027 80.9764 147.084 80.4272L145.095 80.2186ZM96.9909 26.1964C97.4452 27.0552 97.7142 27.6989 97.8432 28.1837C97.9729 28.6715 97.9349 28.9016 97.8985 28.9999C97.8716 29.0723 97.8064 29.1845 97.54 29.3252C97.253 29.4767 96.8165 29.6152 96.1707 29.7499L96.5791 31.7077C97.2772 31.5621 97.9345 31.3785 98.4737 31.0938C99.0335 30.7983 99.527 30.3602 99.7735 29.6957C100.01 29.0572 99.9607 28.3639 99.7759 27.6695C99.5904 26.9721 99.2421 26.1748 98.7588 25.2612L96.9909 26.1964ZM104.254 26.2741C103.841 26.9021 103.48 27.4945 103.213 28.0487C102.948 28.5982 102.745 29.1684 102.703 29.7451C102.659 30.3512 102.794 30.9367 103.155 31.4674C103.5 31.9742 104.008 32.3697 104.608 32.6993L105.571 30.9463C105.128 30.7031 104.913 30.4954 104.809 30.3427C104.721 30.2138 104.684 30.0833 104.698 29.891C104.714 29.6691 104.801 29.3583 105.014 28.9181C105.224 28.4826 105.528 27.9766 105.926 27.3716L104.254 26.2741ZM104.604 32.6969C110.109 35.7562 113.21 39.6021 114.904 45.3844C116.624 51.2588 116.895 59.1451 116.59 70.2957L118.589 70.3505C118.894 59.2183 118.642 51.0365 116.823 44.8224C114.977 38.5164 111.523 34.2536 105.575 30.9487L104.604 32.6969ZM98.7059 25.1726C98.6784 25.1315 98.6566 25.0991 98.6421 25.0784C98.6387 25.0735 98.6314 25.063 98.6227 25.0511C98.6193 25.0466 98.6085 25.0319 98.5942 25.014C98.5881 25.0065 98.5709 24.9853 98.5472 24.9597C98.5359 24.9476 98.5117 24.9221 98.4784 24.8926C98.4621 24.8784 98.4221 24.8462 98.3982 24.8285C98.3627 24.8042 98.2683 24.7494 98.2083 24.7214C98.1051 24.6838 97.8136 24.6407 97.6289 24.6582C97.3804 24.74 97.005 25.0541 96.8917 25.2562C96.8457 25.3939 96.815 25.622 96.817 25.7073C96.822 25.7605 96.8366 25.8484 96.8446 25.8832C96.8511 25.9078 96.8639 25.9501 96.8698 25.968C96.8747 25.9817 96.8839 26.0061 96.8882 26.0168C96.8978 26.0405 96.9065 26.0593 96.9117 26.0703C96.9221 26.0922 96.9312 26.1091 96.9353 26.1167C96.9402 26.1258 96.9444 26.1333 96.9471 26.138C96.9563 26.1542 96.9646 26.1676 96.967 26.1716C96.9742 26.1832 96.9819 26.1954 96.9879 26.2048C96.9945 26.2153 97.002 26.227 97.0098 26.239C97.0254 26.2632 97.0436 26.2914 97.0617 26.3191C97.0797 26.3468 97.098 26.3748 97.1138 26.3988C97.1284 26.421 97.1443 26.445 97.1555 26.4616C97.1582 26.4655 97.1638 26.4738 97.1704 26.4831C97.1729 26.4866 97.181 26.4981 97.1916 26.512C97.196 26.5178 97.2088 26.5347 97.2264 26.5553C97.2345 26.5649 97.2528 26.5862 97.2778 26.6114C97.2903 26.6238 97.3212 26.6527 97.3399 26.669C97.3684 26.6925 97.4477 26.7491 97.4996 26.7803C97.5991 26.829 97.9238 26.9059 98.1474 26.8953C98.4744 26.7821 98.8855 26.3503 98.9686 26.1073C98.986 25.9802 98.9809 25.7841 98.9702 25.7168C98.9616 25.677 98.9438 25.612 98.9355 25.5865C98.9293 25.5687 98.9177 25.5381 98.9124 25.5251C98.9083 25.5152 98.9006 25.4976 98.897 25.4899C98.8892 25.4727 98.8823 25.4591 98.8782 25.4511C98.87 25.4351 98.8631 25.4227 98.8599 25.417C98.8561 25.4103 98.8529 25.4047 98.8507 25.4011C98.8435 25.3887 98.8369 25.378 98.8344 25.374C98.8226 25.3549 98.8031 25.3242 98.7774 25.2841L97.0929 26.3622C97.1056 26.3822 97.1153 26.3974 97.1224 26.4085C97.1259 26.4141 97.1286 26.4183 97.1306 26.4215C97.1327 26.4248 97.1335 26.426 97.1334 26.4259C97.1333 26.4258 97.1326 26.4247 97.1315 26.4228C97.1306 26.4214 97.128 26.4171 97.1246 26.4112C97.1228 26.4083 97.1199 26.4033 97.1164 26.397C97.1135 26.3918 97.1068 26.3798 97.0988 26.3641C97.0947 26.3562 97.0879 26.3428 97.0801 26.3257C97.0766 26.318 97.0689 26.3005 97.0648 26.2906C97.0595 26.2777 97.0479 26.2471 97.0417 26.2294C97.0334 26.2039 97.0157 26.1389 97.0071 26.0992C96.9963 26.0319 96.9913 25.8357 97.0087 25.7087C97.0918 25.4657 97.5029 25.0339 97.8299 24.9207C98.0535 24.9101 98.3781 24.987 98.4777 25.0357C98.5295 25.0669 98.6088 25.1235 98.6373 25.1469C98.6559 25.1632 98.6868 25.1921 98.6992 25.2044C98.7084 25.2138 98.7244 25.2308 98.7312 25.2383C98.7366 25.2443 98.7462 25.2554 98.7505 25.2603C98.7602 25.2717 98.7678 25.2812 98.7725 25.2872C98.7775 25.2935 98.7817 25.2989 98.7846 25.3028C98.7947 25.316 98.802 25.3264 98.8036 25.3287C98.8063 25.3326 98.8083 25.3354 98.8091 25.3365C98.81 25.3378 98.8105 25.3386 98.8106 25.3387C98.8106 25.3388 98.81 25.3378 98.8084 25.3355C98.8069 25.3333 98.805 25.3304 98.8026 25.3268C98.7978 25.3196 98.7919 25.3105 98.7849 25.3C98.771 25.2789 98.7543 25.2533 98.7376 25.2276C98.7208 25.2019 98.7045 25.1767 98.6913 25.1562C98.6847 25.1459 98.6792 25.1374 98.6751 25.1309C98.6703 25.1234 98.6694 25.1219 98.6708 25.1241C98.6713 25.125 98.6726 25.1271 98.6744 25.1301C98.6758 25.1325 98.6795 25.1387 98.6842 25.1469C98.6866 25.1511 98.6905 25.158 98.6952 25.1666C98.699 25.1738 98.7079 25.1903 98.7182 25.212C98.7233 25.2228 98.7319 25.2414 98.7415 25.265C98.7458 25.2757 98.7549 25.3 98.7598 25.3137C98.7658 25.3315 98.7785 25.3739 98.785 25.3984C98.793 25.4332 98.8076 25.521 98.8126 25.5742C98.8146 25.6595 98.7839 25.8875 98.7379 26.0253C98.6246 26.2274 98.2492 26.5414 98.0007 26.6233C97.816 26.6407 97.5245 26.5977 97.4213 26.5601C97.3614 26.532 97.267 26.4773 97.2315 26.453C97.2077 26.4353 97.1677 26.4031 97.1514 26.3889C97.1393 26.378 97.118 26.358 97.1089 26.349C97.1017 26.3417 97.0887 26.3282 97.0829 26.3221C97.0698 26.308 97.0596 26.2961 97.0531 26.2885C97.0463 26.2805 97.0407 26.2736 97.0366 26.2687C97.0288 26.2589 97.0227 26.251 97.0193 26.2465C97.0156 26.2416 97.0126 26.2376 97.0107 26.2349C97.0068 26.2297 97.004 26.2258 97.0029 26.2242C97.0016 26.2224 97.0008 26.2212 97.0007 26.221C97.0005 26.2207 97.0013 26.2219 97.0035 26.2252C97.0057 26.2283 97.0085 26.2325 97.0123 26.2381C97.0199 26.2494 97.0303 26.2647 97.0438 26.285L98.7059 25.1726ZM83.5809 42.191C82.6701 35.3605 88.6354 27.7725 98.0361 26.818L97.8341 24.8282C87.5439 25.8731 80.5091 34.2857 81.5984 42.4553L83.5809 42.191ZM90.081 80.1919C87.7604 62.6304 86.8424 50.9301 88.0388 43.4817L86.0641 43.1645C84.8131 50.9527 85.7854 62.9512 88.0983 80.4539L90.081 80.1919ZM88.0388 43.4817C88.6117 39.915 89.4737 37.1518 90.8147 35.1955C92.1219 33.2886 93.9151 32.1011 96.5203 31.7182L96.2295 29.7394C93.0771 30.2027 90.7897 31.6948 89.1651 34.0647C87.5744 36.3852 86.6534 39.4961 86.0641 43.1645L88.0388 43.4817ZM81.5984 42.4553C81.8212 44.1261 82.9286 45.4851 84.3004 45.9054C85.0064 46.1217 85.796 46.086 86.5045 45.6705C87.2057 45.2593 87.7094 44.5463 88.0037 43.6284L86.0992 43.0178C85.9126 43.5999 85.6626 43.8457 85.4927 43.9453C85.33 44.0407 85.131 44.0681 84.8863 43.9931C84.3567 43.8309 83.714 43.1898 83.5809 42.191L81.5984 42.4553ZM98.7774 25.2841C93.6465 17.2674 92.9282 11.5913 94.0738 8.05947C95.1992 4.58989 98.2116 2.9208 101.324 3.00286C104.446 3.08516 107.591 4.93481 108.88 8.50505C110.176 12.0935 109.68 17.671 104.888 25.2908L106.582 26.3554C111.544 18.4637 112.349 12.2234 110.761 7.82584C109.167 3.41005 105.244 1.10549 101.377 1.00355C97.5015 0.901383 93.6065 3.01804 92.1714 7.44238C90.7564 11.8045 91.8244 18.1305 97.0929 26.3622L98.7774 25.2841ZM104.888 25.2908C104.685 25.6139 104.475 25.9405 104.256 26.2707L105.923 27.3749C106.151 27.0319 106.37 26.6921 106.582 26.3554L104.888 25.2908ZM105.68 26.8216C109.233 27.0174 111.72 27.4776 113.906 28.3025C116.096 29.1287 118.043 30.3424 120.501 32.1316L121.678 30.5146C119.17 28.6891 117.052 27.3519 114.612 26.4313C112.169 25.5095 109.462 25.027 105.79 24.8246L105.68 26.8216ZM127.515 28.9447C124.085 20.5538 124.279 14.8262 125.898 11.3557C127.499 7.92426 130.555 6.54119 133.382 6.84554C136.214 7.15052 138.881 9.15506 139.686 12.7254C140.498 16.3301 139.445 21.7269 134.285 28.7299L135.895 29.9163C141.235 22.6694 142.627 16.6797 141.637 12.2857C140.639 7.85738 137.255 5.25101 133.596 4.85704C129.931 4.46245 126.053 6.29241 124.085 10.5102C122.136 14.6889 122.126 21.0466 125.664 29.7015L127.515 28.9447ZM125.702 29.7842C125.899 30.1632 126.026 30.4478 126.098 30.6701C126.169 30.8927 126.167 30.9952 126.163 31.0281C126.162 31.037 126.164 31.0535 126.116 31.1054C126.052 31.1756 125.913 31.2878 125.628 31.4359L126.551 33.2103C127.316 32.8124 128.023 32.2442 128.147 31.2823C128.251 30.4688 127.876 29.6307 127.477 28.862L125.702 29.7842ZM120.617 32.2045C121.826 32.8522 122.783 33.2515 123.691 33.4177C124.627 33.589 125.435 33.499 126.313 33.2978L125.866 31.3484C125.14 31.5148 124.625 31.5555 124.051 31.4503C123.448 31.34 122.707 31.0555 121.562 30.4417L120.617 32.2045ZM134.309 28.6984C133.31 29.9469 132.549 31.0022 132.14 31.9015C131.723 32.8196 131.565 33.8334 132.221 34.727C132.776 35.4839 133.774 35.9178 134.864 36.255C136.008 36.6087 137.528 36.9305 139.394 37.3037L139.786 35.3425C137.902 34.9657 136.484 34.6625 135.455 34.3443C134.374 34.0097 133.966 33.7249 133.834 33.5443C133.801 33.5003 133.675 33.3579 133.961 32.7291C134.255 32.0815 134.869 31.1993 135.871 29.9478L134.309 28.6984ZM139.275 37.2725C142.767 38.4278 144.332 40.0439 145.195 41.7703L146.984 40.8759C145.847 38.6023 143.819 36.6693 139.904 35.3737L139.275 37.2725ZM145.169 41.714C146.662 45.2298 147.22 49.5014 147.106 55.612C146.992 61.7266 146.211 69.5772 145.095 80.2186L147.084 80.4272C148.197 69.8114 148.99 61.8675 149.106 55.6492C149.222 49.4268 148.664 44.8271 147.01 40.9322L145.169 41.714Z" fill="black"/>
<path d="M103 11L103.888 11.4594C103.895 11.4464 103.901 11.4333 103.908 11.42L103 11ZM101.043 19.0009C100.492 18.9769 100.025 19.4047 100.001 19.9565C99.9769 20.5083 100.405 20.975 100.957 20.9991L101.043 19.0009ZM107.172 9.98507C107.716 9.89001 108.08 9.37191 107.985 8.82786C107.89 8.28382 107.372 7.91986 106.828 8.01493L107.172 9.98507ZM102.112 10.5406C101.721 11.2955 101.722 12.128 101.851 12.8645C101.982 13.6063 102.263 14.3609 102.563 15.0457C102.863 15.7299 103.211 16.4101 103.485 16.9665C103.778 17.564 103.963 17.9783 104.03 18.2448L105.97 17.7552C105.842 17.2486 105.554 16.6428 105.28 16.0846C104.985 15.4853 104.671 14.8743 104.395 14.2433C104.119 13.6128 103.911 13.028 103.821 12.5179C103.73 12.0024 103.779 11.6703 103.888 11.4594L102.112 10.5406ZM100.957 20.9991C101.821 21.0367 102.569 21.028 103.2 20.9609C103.822 20.8948 104.392 20.7661 104.862 20.5232C105.358 20.2673 105.76 19.8731 105.955 19.3151C106.139 18.7887 106.093 18.2439 105.97 17.7552L104.03 18.2448C104.102 18.5292 104.073 18.6392 104.067 18.6557C104.066 18.6598 104.065 18.6618 104.058 18.6692C104.049 18.6792 104.019 18.708 103.945 18.7459C103.786 18.828 103.492 18.9185 102.989 18.9721C102.494 19.0247 101.855 19.0363 101.043 19.0009L100.957 20.9991ZM103.908 11.42C104.211 10.7636 104.536 10.5387 104.936 10.396C105.177 10.3104 105.466 10.2495 105.85 10.1884C106.195 10.1335 106.702 10.0673 107.172 9.98507L106.828 8.01493C106.353 8.09796 105.989 8.14111 105.536 8.21316C105.122 8.27893 104.685 8.36245 104.265 8.51219C103.345 8.84032 102.615 9.45019 102.092 10.58L103.908 11.42Z" fill="black"/>
<path d="M128.333 21.5681L129.242 21.1506L129.248 21.1636L129.254 21.1767L128.333 21.5681ZM127.047 16.0179C126.496 16.0441 126.027 15.618 126.001 15.0664C125.975 14.5147 126.401 14.0463 126.953 14.0202L127.047 16.0179ZM131.073 22.0217C131.624 22.0621 132.038 22.5413 131.997 23.0921C131.957 23.643 131.478 24.0567 130.927 24.0164L131.073 22.0217ZM127.425 21.9856C127.281 21.6726 127.277 21.3487 127.289 21.1371C127.302 20.9019 127.346 20.6557 127.399 20.4223C127.507 19.955 127.681 19.4179 127.857 18.9048C128.044 18.3623 128.221 17.8776 128.382 17.3962C128.543 16.9151 128.645 16.5598 128.678 16.3396L130.655 16.64C130.593 17.0504 130.438 17.5545 130.279 18.0305C130.12 18.5062 129.913 19.0762 129.749 19.555C129.574 20.0631 129.43 20.5137 129.349 20.8695C129.308 21.0477 129.29 21.1719 129.285 21.2495C129.28 21.3508 129.302 21.2822 129.242 21.1506L127.425 21.9856ZM126.953 14.0202C127.53 13.9928 128.041 13.9904 128.479 14.0311C128.907 14.0708 129.343 14.1579 129.72 14.3629C130.137 14.5892 130.446 14.9407 130.597 15.4052C130.732 15.8238 130.713 16.2581 130.655 16.64L128.678 16.3396C128.716 16.0908 128.691 16.0128 128.694 16.0208C128.698 16.0334 128.71 16.061 128.734 16.0897C128.758 16.1174 128.775 16.1254 128.766 16.1206C128.733 16.1023 128.606 16.0515 128.294 16.0225C127.992 15.9944 127.588 15.9923 127.047 16.0179L126.953 14.0202ZM129.254 21.1767C129.355 21.4157 129.665 21.6547 130.192 21.8316C130.428 21.9108 130.656 21.9597 130.827 21.9884C130.911 22.0026 130.978 22.0113 131.022 22.0164C131.044 22.0189 131.06 22.0205 131.069 22.0213C131.073 22.0217 131.076 22.0219 131.076 22.022C131.077 22.022 131.077 22.022 131.076 22.022C131.076 22.0219 131.076 22.0219 131.075 22.0219C131.075 22.0218 131.074 22.0218 131.074 22.0218C131.074 22.0218 131.074 22.0218 131.074 22.0218C131.073 22.0217 131.073 22.0217 131 23.019C130.927 24.0164 130.927 24.0163 130.926 24.0163C130.926 24.0163 130.926 24.0163 130.926 24.0163C130.925 24.0162 130.925 24.0162 130.924 24.0162C130.923 24.0161 130.922 24.016 130.921 24.0159C130.918 24.0157 130.915 24.0154 130.911 24.0151C130.904 24.0145 130.895 24.0137 130.884 24.0127C130.861 24.0106 130.831 24.0076 130.794 24.0033C130.72 23.9948 130.618 23.9813 130.495 23.9607C130.252 23.9199 129.917 23.849 129.555 23.7275C128.886 23.5029 127.863 23.0164 127.413 21.9595L129.254 21.1767Z" fill="black"/>
</svg>
