<svg width="227" height="161" viewBox="0 0 227 161" fill="none" xmlns="http://www.w3.org/2000/svg">
<path d="M9.09375 144V145.719H3.53125V156H1.6875V144H9.09375ZM16.4052 160.5V144H18.1864V145.906H18.4052C18.5406 145.698 18.7281 145.432 18.9677 145.109C19.2124 144.781 19.5614 144.49 20.0145 144.234C20.4729 143.974 21.0927 143.844 21.8739 143.844C22.8843 143.844 23.7749 144.096 24.5458 144.602C25.3166 145.107 25.9182 145.823 26.3505 146.75C26.7828 147.677 26.9989 148.771 26.9989 150.031C26.9989 151.302 26.7828 152.404 26.3505 153.336C25.9182 154.263 25.3192 154.982 24.5536 155.492C23.788 155.997 22.9052 156.25 21.9052 156.25C21.1343 156.25 20.5171 156.122 20.0536 155.867C19.5901 155.607 19.2333 155.312 18.9833 154.984C18.7333 154.651 18.5406 154.375 18.4052 154.156H18.2489V160.5H16.4052ZM18.2177 150C18.2177 150.906 18.3505 151.706 18.6161 152.398C18.8817 153.086 19.2697 153.625 19.7802 154.016C20.2906 154.401 20.9156 154.594 21.6552 154.594C22.426 154.594 23.0692 154.391 23.5848 153.984C24.1057 153.573 24.4963 153.021 24.7567 152.328C25.0223 151.63 25.1552 150.854 25.1552 150C25.1552 149.156 25.0249 148.396 24.7645 147.719C24.5093 147.036 24.1213 146.497 23.6005 146.102C23.0848 145.701 22.4364 145.5 21.6552 145.5C20.9052 145.5 20.2749 145.69 19.7645 146.07C19.2541 146.445 18.8687 146.971 18.6083 147.648C18.3479 148.32 18.2177 149.104 18.2177 150ZM35.1892 160.5C34.8767 160.5 34.5981 160.474 34.3533 160.422C34.1085 160.375 33.9392 160.328 33.8455 160.281L34.3142 158.656C34.7621 158.771 35.158 158.813 35.5017 158.781C35.8455 158.75 36.1502 158.596 36.4158 158.32C36.6866 158.049 36.934 157.609 37.158 157L37.5017 156.063L33.0642 144H35.0642L38.3767 153.562H38.5017L41.8142 144H43.8142L38.7205 157.75C38.4913 158.37 38.2074 158.883 37.8689 159.289C37.5304 159.701 37.1371 160.005 36.6892 160.203C36.2465 160.401 35.7465 160.5 35.1892 160.5ZM50.1178 152.937H52.0866C52.1282 153.479 52.373 153.891 52.8209 154.172C53.2741 154.453 53.8626 154.594 54.5866 154.594C55.3261 154.594 55.959 154.443 56.485 154.141C57.011 153.833 57.2741 153.339 57.2741 152.656C57.2741 152.255 57.1751 151.906 56.9772 151.609C56.7793 151.307 56.5006 151.073 56.1413 150.906C55.7819 150.74 55.3574 150.656 54.8678 150.656H52.8053V149H54.8678C55.6022 149 56.1439 148.833 56.4928 148.5C56.847 148.167 57.0241 147.75 57.0241 147.25C57.0241 146.714 56.834 146.284 56.4538 145.961C56.0735 145.633 55.5345 145.469 54.8366 145.469C54.1334 145.469 53.5475 145.628 53.0788 145.945C52.61 146.258 52.3626 146.661 52.3366 147.156H50.3991C50.4199 146.51 50.6178 145.94 50.9928 145.445C51.3678 144.945 51.8782 144.555 52.5241 144.273C53.1699 143.987 53.9095 143.844 54.7428 143.844C55.5866 143.844 56.3183 143.992 56.9381 144.289C57.5631 144.581 58.0449 144.979 58.3834 145.484C58.7272 145.984 58.8991 146.552 58.8991 147.187C58.8991 147.865 58.709 148.411 58.3288 148.828C57.9485 149.245 57.472 149.542 56.8991 149.719V149.844C57.3522 149.875 57.7454 150.021 58.0788 150.281C58.4173 150.536 58.6803 150.872 58.8678 151.289C59.0553 151.701 59.1491 152.156 59.1491 152.656C59.1491 153.385 58.9538 154.021 58.5631 154.562C58.1725 155.099 57.636 155.516 56.9538 155.812C56.2715 156.104 55.4928 156.25 54.6178 156.25C53.7689 156.25 53.0084 156.112 52.3366 155.836C51.6647 155.555 51.1308 155.167 50.735 154.672C50.3444 154.172 50.1386 153.594 50.1178 152.937ZM68.2027 153.281L73.9839 144H76.1089V156H74.2652V146.719L68.5152 156H66.3589V144H68.2027V153.281ZM92.1371 149.156V150.875H85.5121V149.156H92.1371ZM85.9496 144V156H84.1059V144H85.9496ZM93.5434 144V156H91.6996V144H93.5434ZM106.406 156.25C105.281 156.25 104.312 155.984 103.499 155.453C102.687 154.922 102.062 154.19 101.624 153.258C101.187 152.326 100.968 151.26 100.968 150.062C100.968 148.844 101.192 147.768 101.64 146.836C102.093 145.898 102.723 145.167 103.531 144.641C104.343 144.109 105.291 143.844 106.374 143.844C107.218 143.844 107.978 144 108.656 144.312C109.333 144.625 109.887 145.062 110.32 145.625C110.752 146.187 111.02 146.844 111.124 147.594H109.281C109.14 147.047 108.827 146.562 108.343 146.141C107.864 145.714 107.218 145.5 106.406 145.5C105.687 145.5 105.057 145.687 104.515 146.062C103.978 146.432 103.559 146.956 103.257 147.633C102.96 148.305 102.812 149.094 102.812 150C102.812 150.927 102.958 151.734 103.249 152.422C103.546 153.109 103.963 153.643 104.499 154.023C105.041 154.404 105.676 154.594 106.406 154.594C106.885 154.594 107.32 154.51 107.71 154.344C108.101 154.177 108.432 153.938 108.702 153.625C108.973 153.312 109.166 152.937 109.281 152.5H111.124C111.02 153.208 110.762 153.846 110.351 154.414C109.945 154.977 109.406 155.424 108.734 155.758C108.067 156.086 107.291 156.25 106.406 156.25ZM118.44 156V144H120.283V149.219H121.502L125.815 144H128.19L123.346 149.781L128.252 156H125.877L121.94 150.937H120.283V156H118.44ZM136.72 153.281L142.501 144H144.626V156H142.782V146.719L137.032 156H134.876V144H136.72V153.281ZM154.467 153.281L160.248 144H162.373V156H160.529V146.719L154.779 156H152.623V144H154.467V153.281ZM159.029 140H160.748C160.748 140.844 160.456 141.534 159.873 142.07C159.29 142.607 158.498 142.875 157.498 142.875C156.514 142.875 155.73 142.607 155.146 142.07C154.568 141.534 154.279 140.844 154.279 140H155.998C155.998 140.406 156.11 140.763 156.334 141.07C156.563 141.378 156.951 141.531 157.498 141.531C158.045 141.531 158.435 141.378 158.67 141.07C158.909 140.763 159.029 140.406 159.029 140ZM190.427 144V156H188.584V144H190.427ZM189.709 149.719V151.437C189.292 151.594 188.878 151.732 188.466 151.852C188.055 151.966 187.623 152.057 187.17 152.125C186.716 152.187 186.219 152.219 185.677 152.219C184.318 152.219 183.227 151.852 182.404 151.117C181.586 150.383 181.177 149.281 181.177 147.812V143.969H183.021V147.812C183.021 148.427 183.138 148.932 183.373 149.328C183.607 149.724 183.925 150.018 184.326 150.211C184.727 150.404 185.177 150.5 185.677 150.5C186.459 150.5 187.164 150.43 187.795 150.289C188.43 150.143 189.068 149.953 189.709 149.719ZM201.961 156.281C201.201 156.281 200.511 156.138 199.891 155.852C199.271 155.56 198.779 155.141 198.415 154.594C198.05 154.042 197.868 153.375 197.868 152.594C197.868 151.906 198.003 151.349 198.274 150.922C198.545 150.49 198.907 150.151 199.36 149.906C199.813 149.661 200.313 149.479 200.86 149.359C201.412 149.234 201.967 149.135 202.524 149.063C203.253 148.969 203.844 148.898 204.297 148.852C204.756 148.799 205.089 148.714 205.297 148.594C205.511 148.474 205.618 148.266 205.618 147.969V147.906C205.618 147.135 205.407 146.536 204.985 146.109C204.568 145.682 203.935 145.469 203.086 145.469C202.206 145.469 201.516 145.661 201.016 146.047C200.516 146.432 200.165 146.844 199.961 147.281L198.211 146.656C198.524 145.927 198.941 145.359 199.461 144.953C199.988 144.542 200.56 144.255 201.18 144.094C201.805 143.927 202.42 143.844 203.024 143.844C203.409 143.844 203.852 143.891 204.352 143.984C204.857 144.073 205.344 144.258 205.813 144.539C206.287 144.82 206.68 145.245 206.993 145.812C207.305 146.38 207.461 147.141 207.461 148.094V156H205.618V154.375H205.524C205.399 154.635 205.191 154.914 204.899 155.211C204.607 155.508 204.219 155.76 203.735 155.969C203.251 156.177 202.659 156.281 201.961 156.281ZM202.243 154.625C202.972 154.625 203.586 154.482 204.086 154.195C204.592 153.909 204.972 153.539 205.227 153.086C205.488 152.633 205.618 152.156 205.618 151.656V149.969C205.54 150.062 205.368 150.148 205.102 150.227C204.842 150.299 204.54 150.365 204.196 150.422C203.857 150.474 203.527 150.521 203.204 150.562C202.886 150.599 202.628 150.63 202.43 150.656C201.951 150.719 201.503 150.82 201.086 150.961C200.675 151.096 200.342 151.302 200.086 151.578C199.836 151.849 199.711 152.219 199.711 152.687C199.711 153.328 199.948 153.812 200.422 154.141C200.902 154.464 201.508 154.625 202.243 154.625ZM217.29 153.281L223.072 144H225.197V156H223.353V146.719L217.603 156H215.447V144H217.29V153.281ZM221.853 140H223.572C223.572 140.844 223.28 141.534 222.697 142.07C222.113 142.607 221.322 142.875 220.322 142.875C219.337 142.875 218.553 142.607 217.97 142.07C217.392 141.534 217.103 140.844 217.103 140H218.822C218.822 140.406 218.934 140.763 219.158 141.07C219.387 141.378 219.775 141.531 220.322 141.531C220.869 141.531 221.259 141.378 221.494 141.07C221.733 140.763 221.853 140.406 221.853 140Z" fill="white"/>
<path d="M3 121V90.5L16.5 108.5L30 90.5V121M60 92H40.5V106.5M60 121H40.5V106.5M40.5 106.5H54.5M89 95.5C83.5375 91.4654 80.4726 90.766 75 93C75 92 57 106 68.5 118C80 130 99 108.5 90.5 108.5C82 108.5 80 108.5 80 108.5M149.5 107.5C159 111.5 154.5 121 149.5 121C144.5 121 134 121 134 121V107M149.5 107.5L134 107M149.5 107.5C154.75 100.5 155.137 97.4126 149.5 93H134V107M161.5 121C162.002 117.084 162.615 113.587 163.314 110.5M185.5 121C185.18 117.111 184.713 113.608 184.127 110.5M184.127 110.5C179.767 87.3672 168.84 86.1203 163.314 110.5M184.127 110.5H163.314M194 121V111.5M200 111.5C217 105 220.048 98.6374 207 93H194V111.5M200 111.5H194M200 111.5C205.835 119.334 209.542 121.483 217 121M223.5 93V121M97.552 108.5C99.1039 127.5 124.931 127.691 126.052 108.5C127.173 89.3088 96 89.5 97.552 108.5Z" stroke="white" stroke-width="2" stroke-linecap="round" stroke-linejoin="round"/>
<path d="M88.0983 81.4539C88.1706 82.0014 88.6731 82.3866 89.2207 82.3143C89.7682 82.2419 90.1534 81.7394 90.081 81.1919L88.0983 81.4539ZM96.3749 31.7288L96.5203 32.7182L96.5498 32.7138L96.5791 32.7077L96.3749 31.7288ZM97.8749 26.7288L98.7588 26.2612L98.7347 26.2155L98.7059 26.1726L97.8749 26.7288ZM105.09 27.8228L104.256 27.2707L104.254 27.2741L105.09 27.8228ZM105.09 32.8228L105.575 31.9487L105.571 31.9463L105.09 32.8228ZM116.59 71.2957C116.575 71.8478 117.01 72.3076 117.562 72.3227C118.114 72.3379 118.574 71.9026 118.589 71.3505L116.59 71.2957ZM82.5896 43.3231L83.5809 43.191L82.5896 43.3231ZM121.09 32.3231L120.501 33.1316L120.557 33.1721L120.617 33.2045L121.09 32.3231ZM126.59 30.3231L125.664 30.7015L125.681 30.7437L125.702 30.7842L126.59 30.3231ZM135.09 30.3231L135.871 30.9478L135.883 30.9323L135.895 30.9163L135.09 30.3231ZM126.09 33.3231L126.313 34.2978L126.438 34.2693L126.551 34.2103L126.09 33.3231ZM139.59 37.3231L139.904 36.3737L139.846 36.3545L139.786 36.3425L139.59 37.3231ZM146.09 42.3231L147.01 41.9322L146.998 41.9037L146.984 41.8759L146.09 42.3231ZM145.095 81.2186C145.037 81.7679 145.436 82.2598 145.985 82.3174C146.535 82.375 147.027 81.9765 147.084 81.4272L145.095 81.2186ZM96.9909 27.1964C97.4452 28.0552 97.7142 28.6989 97.8432 29.1837C97.9729 29.6715 97.9349 29.9016 97.8985 29.9999C97.8716 30.0723 97.8064 30.1845 97.54 30.3252C97.253 30.4767 96.8165 30.6152 96.1707 30.7499L96.5791 32.7077C97.2772 32.5621 97.9345 32.3785 98.4737 32.0938C99.0335 31.7983 99.527 31.3602 99.7735 30.6957C100.01 30.0572 99.9607 29.3639 99.7759 28.6695C99.5904 27.9721 99.2421 27.1748 98.7588 26.2612L96.9909 27.1964ZM104.254 27.2741C103.841 27.9021 103.48 28.4945 103.213 29.0487C102.948 29.5982 102.745 30.1684 102.703 30.7451C102.659 31.3512 102.794 31.9367 103.155 32.4674C103.5 32.9742 104.008 33.3697 104.608 33.6993L105.571 31.9463C105.128 31.7031 104.913 31.4954 104.809 31.3427C104.721 31.2138 104.684 31.0833 104.698 30.891C104.714 30.6691 104.801 30.3583 105.014 29.9181C105.224 29.4826 105.528 28.9766 105.926 28.3716L104.254 27.2741ZM104.604 33.6969C110.109 36.7562 113.21 40.6021 114.904 46.3844C116.624 52.2588 116.895 60.1451 116.59 71.2957L118.589 71.3505C118.894 60.2183 118.642 52.0365 116.823 45.8224C114.977 39.5164 111.523 35.2536 105.575 31.9487L104.604 33.6969ZM98.7059 26.1726C98.6784 26.1315 98.6566 26.0991 98.6421 26.0784C98.6387 26.0735 98.6314 26.063 98.6227 26.0511C98.6193 26.0466 98.6085 26.0319 98.5942 26.014C98.5881 26.0065 98.5709 25.9853 98.5472 25.9597C98.5359 25.9476 98.5117 25.9221 98.4784 25.8926C98.4621 25.8784 98.4221 25.8462 98.3982 25.8285C98.3627 25.8042 98.2683 25.7494 98.2083 25.7214C98.1051 25.6838 97.8136 25.6407 97.6289 25.6582C97.3804 25.74 97.005 26.0541 96.8917 26.2562C96.8457 26.3939 96.815 26.622 96.817 26.7073C96.822 26.7605 96.8366 26.8484 96.8446 26.8832C96.8511 26.9078 96.8639 26.9501 96.8698 26.968C96.8747 26.9817 96.8839 27.0061 96.8882 27.0168C96.8978 27.0405 96.9065 27.0593 96.9117 27.0703C96.9221 27.0922 96.9312 27.1091 96.9353 27.1167C96.9402 27.1258 96.9444 27.1333 96.9471 27.138C96.9563 27.1542 96.9646 27.1676 96.967 27.1716C96.9742 27.1832 96.9819 27.1954 96.9879 27.2048C96.9945 27.2153 97.002 27.227 97.0098 27.239C97.0254 27.2632 97.0436 27.2914 97.0617 27.3191C97.0797 27.3468 97.098 27.3748 97.1138 27.3988C97.1284 27.421 97.1443 27.445 97.1555 27.4616C97.1582 27.4655 97.1638 27.4738 97.1704 27.4831C97.1729 27.4866 97.181 27.4981 97.1916 27.512C97.196 27.5178 97.2088 27.5347 97.2264 27.5553C97.2345 27.5649 97.2528 27.5862 97.2778 27.6114C97.2903 27.6238 97.3212 27.6527 97.3399 27.669C97.3684 27.6925 97.4477 27.7491 97.4996 27.7803C97.5991 27.829 97.9238 27.9059 98.1474 27.8953C98.4744 27.7821 98.8855 27.3503 98.9686 27.1073C98.986 26.9802 98.9809 26.7841 98.9702 26.7168C98.9616 26.677 98.9438 26.612 98.9355 26.5865C98.9293 26.5687 98.9177 26.5381 98.9124 26.5251C98.9083 26.5152 98.9006 26.4976 98.897 26.4899C98.8892 26.4727 98.8823 26.4591 98.8782 26.4511C98.87 26.4351 98.8631 26.4227 98.8599 26.417C98.8561 26.4103 98.8529 26.4047 98.8507 26.4011C98.8435 26.3887 98.8369 26.378 98.8344 26.374C98.8226 26.3549 98.8031 26.3242 98.7774 26.2841L97.0929 27.3622C97.1056 27.3822 97.1153 27.3974 97.1224 27.4085C97.1259 27.4141 97.1286 27.4183 97.1306 27.4215C97.1327 27.4248 97.1335 27.426 97.1334 27.4259C97.1333 27.4258 97.1326 27.4247 97.1315 27.4228C97.1306 27.4214 97.128 27.4171 97.1246 27.4112C97.1228 27.4083 97.1199 27.4033 97.1164 27.397C97.1135 27.3918 97.1068 27.3798 97.0988 27.3641C97.0947 27.3562 97.0879 27.3428 97.0801 27.3257C97.0766 27.318 97.0689 27.3005 97.0648 27.2906C97.0595 27.2777 97.0479 27.2471 97.0417 27.2294C97.0334 27.2039 97.0157 27.1389 97.0071 27.0992C96.9963 27.0319 96.9912 26.8357 97.0087 26.7087C97.0918 26.4657 97.5029 26.0339 97.8299 25.9207C98.0535 25.9101 98.3781 25.987 98.4777 26.0357C98.5295 26.0669 98.6088 26.1235 98.6373 26.1469C98.6559 26.1632 98.6868 26.1921 98.6992 26.2044C98.7084 26.2138 98.7244 26.2308 98.7312 26.2383C98.7366 26.2443 98.7462 26.2554 98.7505 26.2603C98.7602 26.2717 98.7678 26.2812 98.7725 26.2872C98.7775 26.2935 98.7817 26.2989 98.7846 26.3028C98.7947 26.316 98.802 26.3264 98.8036 26.3287C98.8063 26.3326 98.8083 26.3354 98.8091 26.3365C98.81 26.3378 98.8105 26.3386 98.8106 26.3387C98.8106 26.3388 98.81 26.3378 98.8084 26.3355C98.8069 26.3333 98.805 26.3304 98.8026 26.3268C98.7978 26.3196 98.7919 26.3105 98.7849 26.3C98.771 26.2789 98.7543 26.2533 98.7376 26.2276C98.7208 26.2019 98.7045 26.1767 98.6913 26.1562C98.6847 26.1459 98.6792 26.1374 98.6751 26.1309C98.6703 26.1234 98.6694 26.1219 98.6708 26.1241C98.6713 26.125 98.6726 26.1271 98.6744 26.1301C98.6758 26.1325 98.6795 26.1387 98.6842 26.1469C98.6866 26.1511 98.6905 26.158 98.6952 26.1666C98.699 26.1738 98.7079 26.1903 98.7182 26.212C98.7233 26.2228 98.7319 26.2414 98.7415 26.265C98.7458 26.2757 98.7549 26.3 98.7598 26.3137C98.7658 26.3315 98.7785 26.3739 98.785 26.3984C98.793 26.4332 98.8076 26.521 98.8126 26.5742C98.8146 26.6595 98.7839 26.8875 98.7379 27.0253C98.6246 27.2274 98.2492 27.5414 98.0007 27.6233C97.816 27.6407 97.5245 27.5977 97.4213 27.5601C97.3614 27.532 97.267 27.4773 97.2315 27.453C97.2077 27.4353 97.1677 27.4031 97.1514 27.3889C97.1393 27.378 97.118 27.358 97.1089 27.349C97.1017 27.3417 97.0887 27.3282 97.0829 27.3221C97.0698 27.308 97.0596 27.2961 97.0531 27.2885C97.0463 27.2805 97.0407 27.2736 97.0366 27.2687C97.0288 27.2589 97.0227 27.251 97.0193 27.2465C97.0156 27.2416 97.0126 27.2376 97.0107 27.2349C97.0068 27.2297 97.004 27.2258 97.0029 27.2242C97.0016 27.2224 97.0008 27.2212 97.0007 27.221C97.0005 27.2207 97.0013 27.2219 97.0035 27.2252C97.0057 27.2283 97.0085 27.2325 97.0123 27.2381C97.0199 27.2494 97.0303 27.2647 97.0438 27.285L98.7059 26.1726ZM83.5809 43.191C82.6701 36.3605 88.6354 28.7725 98.0361 27.818L97.8341 25.8282C87.5439 26.8731 80.5091 35.2857 81.5984 43.4553L83.5809 43.191ZM90.081 81.1919C87.7604 63.6304 86.8424 51.9301 88.0388 44.4817L86.0641 44.1645C84.8131 51.9527 85.7854 63.9512 88.0983 81.4539L90.081 81.1919ZM88.0388 44.4817C88.6117 40.915 89.4737 38.1518 90.8147 36.1955C92.1219 34.2886 93.9151 33.1011 96.5203 32.7182L96.2295 30.7394C93.0771 31.2027 90.7897 32.6948 89.1651 35.0647C87.5744 37.3852 86.6534 40.4961 86.0641 44.1645L88.0388 44.4817ZM81.5984 43.4553C81.8212 45.1261 82.9286 46.4851 84.3004 46.9054C85.0064 47.1217 85.796 47.086 86.5045 46.6705C87.2057 46.2593 87.7094 45.5463 88.0037 44.6284L86.0992 44.0178C85.9126 44.5999 85.6626 44.8457 85.4927 44.9453C85.33 45.0407 85.131 45.0681 84.8863 44.9931C84.3567 44.8309 83.714 44.1898 83.5809 43.191L81.5984 43.4553ZM98.7774 26.2841C93.6465 18.2674 92.9282 12.5913 94.0738 9.05947C95.1992 5.58989 98.2116 3.9208 101.324 4.00286C104.446 4.08516 107.591 5.93481 108.88 9.50505C110.176 13.0935 109.68 18.671 104.888 26.2908L106.582 27.3554C111.544 19.4637 112.349 13.2234 110.761 8.82584C109.167 4.41005 105.244 2.10549 101.377 2.00355C97.5015 1.90138 93.6065 4.01804 92.1714 8.44238C90.7564 12.8045 91.8244 19.1305 97.0929 27.3622L98.7774 26.2841ZM104.888 26.2908C104.685 26.6139 104.475 26.9405 104.256 27.2707L105.923 28.3749C106.151 28.0319 106.37 27.6921 106.582 27.3554L104.888 26.2908ZM105.68 27.8216C109.233 28.0174 111.72 28.4776 113.906 29.3025C116.096 30.1287 118.043 31.3424 120.501 33.1316L121.678 31.5146C119.17 29.6891 117.052 28.3519 114.612 27.4313C112.169 26.5095 109.462 26.027 105.79 25.8246L105.68 27.8216ZM127.515 29.9447C124.085 21.5538 124.279 15.8262 125.898 12.3557C127.499 8.92426 130.555 7.54119 133.382 7.84554C136.214 8.15052 138.881 10.1551 139.686 13.7254C140.498 17.3301 139.445 22.7269 134.285 29.7299L135.895 30.9163C141.235 23.6694 142.627 17.6797 141.637 13.2857C140.639 8.85738 137.255 6.25101 133.596 5.85704C129.931 5.46245 126.053 7.29241 124.085 11.5102C122.136 15.6889 122.126 22.0466 125.664 30.7015L127.515 29.9447ZM125.702 30.7842C125.899 31.1632 126.026 31.4478 126.098 31.6701C126.169 31.8927 126.167 31.9952 126.163 32.0281C126.162 32.037 126.164 32.0535 126.116 32.1054C126.052 32.1756 125.913 32.2877 125.628 32.4359L126.551 34.2103C127.316 33.8124 128.023 33.2442 128.147 32.2823C128.251 31.4688 127.876 30.6307 127.477 29.862L125.702 30.7842ZM120.617 33.2045C121.826 33.8522 122.783 34.2515 123.691 34.4177C124.627 34.589 125.435 34.499 126.313 34.2978L125.866 32.3484C125.14 32.5148 124.625 32.5555 124.051 32.4503C123.448 32.34 122.707 32.0555 121.562 31.4417L120.617 33.2045ZM134.309 29.6984C133.31 30.9469 132.549 32.0022 132.14 32.9015C131.723 33.8196 131.565 34.8334 132.221 35.727C132.776 36.4839 133.774 36.9178 134.864 37.255C136.008 37.6087 137.528 37.9305 139.394 38.3037L139.786 36.3425C137.902 35.9657 136.484 35.6625 135.455 35.3444C134.374 35.0097 133.966 34.7249 133.834 34.5443C133.801 34.5003 133.675 34.3579 133.961 33.7291C134.255 33.0815 134.869 32.1993 135.871 30.9478L134.309 29.6984ZM139.275 38.2725C142.767 39.4278 144.332 41.0439 145.195 42.7703L146.984 41.8759C145.847 39.6023 143.819 37.6693 139.904 36.3737L139.275 38.2725ZM145.169 42.714C146.662 46.2298 147.22 50.5014 147.106 56.612C146.992 62.7266 146.211 70.5772 145.095 81.2186L147.084 81.4272C148.197 70.8114 148.99 62.8675 149.106 56.6492C149.222 50.4268 148.664 45.8271 147.01 41.9322L145.169 42.714Z" fill="white"/>
<path d="M103 12L103.888 12.4594C103.895 12.4464 103.901 12.4333 103.908 12.42L103 12ZM101.043 20.0009C100.492 19.9769 100.025 20.4047 100.001 20.9565C99.9769 21.5083 100.405 21.975 100.957 21.9991L101.043 20.0009ZM107.172 10.9851C107.716 10.89 108.08 10.3719 107.985 9.82786C107.89 9.28382 107.372 8.91986 106.828 9.01493L107.172 10.9851ZM102.112 11.5406C101.721 12.2955 101.722 13.128 101.851 13.8645C101.982 14.6063 102.263 15.3609 102.563 16.0457C102.863 16.7299 103.211 17.4101 103.485 17.9665C103.778 18.564 103.963 18.9783 104.03 19.2448L105.97 18.7552C105.842 18.2486 105.554 17.6428 105.28 17.0846C104.985 16.4853 104.671 15.8743 104.395 15.2433C104.119 14.6128 103.911 14.028 103.821 13.5179C103.73 13.0024 103.779 12.6703 103.888 12.4594L102.112 11.5406ZM100.957 21.9991C101.821 22.0367 102.569 22.028 103.2 21.9609C103.822 21.8948 104.392 21.7661 104.862 21.5232C105.358 21.2673 105.76 20.8731 105.955 20.3151C106.139 19.7887 106.093 19.2439 105.97 18.7552L104.03 19.2448C104.102 19.5292 104.073 19.6392 104.067 19.6557C104.066 19.6598 104.065 19.6618 104.058 19.6692C104.049 19.6792 104.019 19.708 103.945 19.7459C103.786 19.828 103.492 19.9185 102.989 19.9721C102.494 20.0247 101.855 20.0363 101.043 20.0009L100.957 21.9991ZM103.908 12.42C104.211 11.7636 104.536 11.5387 104.936 11.396C105.177 11.3104 105.466 11.2495 105.85 11.1884C106.195 11.1335 106.702 11.0673 107.172 10.9851L106.828 9.01493C106.353 9.09796 105.989 9.14111 105.536 9.21316C105.122 9.27893 104.685 9.36245 104.265 9.51219C103.345 9.84032 102.615 10.4502 102.092 11.58L103.908 12.42Z" fill="white"/>
<path d="M128.333 22.5681L129.242 22.1506L129.248 22.1636L129.254 22.1767L128.333 22.5681ZM127.047 17.0179C126.496 17.0441 126.027 16.618 126.001 16.0664C125.975 15.5147 126.401 15.0463 126.953 15.0202L127.047 17.0179ZM131.073 23.0217C131.624 23.0621 132.038 23.5413 131.997 24.0921C131.957 24.643 131.478 25.0567 130.927 25.0164L131.073 23.0217ZM127.425 22.9856C127.281 22.6726 127.277 22.3487 127.289 22.1371C127.302 21.9019 127.346 21.6557 127.399 21.4223C127.507 20.955 127.681 20.4179 127.857 19.9048C128.044 19.3623 128.221 18.8776 128.382 18.3962C128.543 17.9151 128.645 17.5598 128.678 17.3396L130.655 17.64C130.593 18.0504 130.438 18.5545 130.279 19.0305C130.12 19.5062 129.913 20.0762 129.749 20.555C129.574 21.0631 129.43 21.5137 129.349 21.8695C129.308 22.0477 129.29 22.1719 129.285 22.2495C129.28 22.3508 129.302 22.2822 129.242 22.1506L127.425 22.9856ZM126.953 15.0202C127.53 14.9928 128.041 14.9904 128.479 15.0311C128.907 15.0708 129.343 15.1579 129.72 15.3629C130.137 15.5892 130.446 15.9407 130.597 16.4052C130.732 16.8238 130.713 17.2581 130.655 17.64L128.678 17.3396C128.716 17.0908 128.691 17.0128 128.694 17.0208C128.698 17.0334 128.71 17.061 128.734 17.0897C128.758 17.1174 128.775 17.1254 128.766 17.1206C128.733 17.1023 128.606 17.0515 128.294 17.0225C127.992 16.9944 127.588 16.9923 127.047 17.0179L126.953 15.0202ZM129.254 22.1767C129.355 22.4157 129.665 22.6547 130.192 22.8316C130.428 22.9108 130.656 22.9597 130.827 22.9884C130.911 23.0026 130.978 23.0113 131.022 23.0164C131.044 23.0189 131.06 23.0205 131.069 23.0213C131.073 23.0217 131.076 23.0219 131.076 23.022C131.077 23.022 131.077 23.022 131.076 23.022C131.076 23.0219 131.076 23.0219 131.075 23.0219C131.075 23.0218 131.074 23.0218 131.074 23.0218C131.074 23.0218 131.074 23.0218 131.074 23.0218C131.073 23.0217 131.073 23.0217 131 24.019C130.927 25.0164 130.927 25.0163 130.926 25.0163C130.926 25.0163 130.926 25.0163 130.926 25.0163C130.925 25.0162 130.925 25.0162 130.924 25.0162C130.923 25.0161 130.922 25.016 130.921 25.0159C130.918 25.0157 130.915 25.0154 130.911 25.0151C130.904 25.0145 130.895 25.0137 130.884 25.0127C130.861 25.0106 130.831 25.0076 130.794 25.0033C130.72 24.9948 130.618 24.9813 130.495 24.9607C130.252 24.9199 129.917 24.849 129.555 24.7275C128.886 24.5029 127.863 24.0164 127.413 22.9595L129.254 22.1767Z" fill="white"/>
</svg>
