<svg width="223" height="35" viewBox="0 0 223 35" fill="none" xmlns="http://www.w3.org/2000/svg">
<path d="M1 31.5V1L14.5 19L28 1V31.5M58 2.5H38.5V17M58 31.5H38.5V17M38.5 17H52.5M87 6C81.5375 1.96539 78.4726 1.26596 73 3.5C73 2.5 55 16.5 66.5 28.5C78 40.5 97 19 88.5 19C80 19 78 19 78 19M147.5 18C157 22 152.5 31.5 147.5 31.5C142.5 31.5 132 31.5 132 31.5V17.5M147.5 18L132 17.5M147.5 18C152.75 11 153.137 7.91265 147.5 3.5H132V17.5M159.5 31.5C160.002 27.5842 160.615 24.0867 161.314 21M183.5 31.5C183.18 27.611 182.713 24.108 182.127 21M182.127 21C177.767 -2.1328 166.84 -3.37971 161.314 21M182.127 21H161.314M192 31.5V22M198 22C215 15.5 218.048 9.13739 205 3.5H192V22M198 22H192M198 22C203.835 29.8343 207.542 31.9827 215 31.5M221.5 3.5V31.5M95.552 19C97.1039 38 122.931 38.1912 124.052 19C125.173 -0.191181 94 0 95.552 19Z" stroke="black" stroke-width="2" stroke-linecap="round" stroke-linejoin="round"/>
</svg>
