<svg width="64" height="64" viewBox="0 0 64 64" fill="none" xmlns="http://www.w3.org/2000/svg">
<path d="M58.9125 0H5.09392C2.27655 0 0 2.38331 0 5.33109V58.6712C0 61.61 2.27655 64 5.09392 64H58.9125C61.717 64 64 61.6122 64 58.6712V5.33109C63.9979 2.38331 61.7149 0 58.9125 0ZM43.0194 19.0015C41.6962 18.1907 40.6466 17.55 39.3277 17.55C38.0366 17.55 36.9336 17.8883 36.3693 18.4572C35.8049 19.0217 35.5249 20.1148 35.5249 21.7298V24.1198H42.4273L40.9331 30.768H35.5249V52.8585H26.8548V30.768H22.8083V24.1198H26.8591V21.582C26.8591 18.9097 27.1647 17.3104 27.7675 15.991C28.3682 14.6762 29.5332 13.2113 31.1535 12.3825C32.7717 11.5559 35.1658 11.1393 37.6433 11.1393C40.1828 11.1393 42.1665 12.0263 44.5991 12.7409L43.0194 19.0015Z" fill="white"/>
</svg>
