<svg width="64" height="64" viewBox="0 0 64 64" fill="none" xmlns="http://www.w3.org/2000/svg">
<g clip-path="url(#clip0_10_64)">
<path d="M32 16C27.7565 16 23.6869 17.6857 20.6863 20.6863C17.6857 23.6869 16 27.7565 16 32C16 36.2435 17.6857 40.3131 20.6863 43.3137C23.6869 46.3143 27.7565 48 32 48C36.2435 48 40.3131 46.3143 43.3137 43.3137C46.3143 40.3131 48 36.2435 48 32C48 27.7565 46.3143 23.6869 43.3137 20.6863C40.3131 17.6857 36.2435 16 32 16ZM32 42.391C29.2432 42.391 26.5993 41.2959 24.65 39.3465C22.7007 37.3972 21.6055 34.7533 21.6055 31.9965C21.6055 29.2398 22.7007 26.5959 24.65 24.6465C26.5993 22.6972 29.2432 21.6021 32 21.6021C34.7568 21.6021 37.4007 22.6972 39.35 24.6465C41.2993 26.5959 42.3945 29.2398 42.3945 31.9965C42.3945 34.7533 41.2993 37.3972 39.35 39.3465C37.4007 41.2959 34.7568 42.391 32 42.391Z" fill="white"/>
<path d="M49 19C51.2091 19 53 17.2091 53 15C53 12.7909 51.2091 11 49 11C46.7909 11 45 12.7909 45 15C45 17.2091 46.7909 19 49 19Z" fill="white"/>
<path d="M62.3048 11.0215C61.482 8.90017 60.2247 6.97372 58.6134 5.36548C57.002 3.75723 55.0721 2.50263 52.9471 1.68197C50.4605 0.749991 47.8336 0.246054 45.1781 0.191616C41.7557 0.0425812 40.6717 0 31.9929 0C23.3141 0 22.2017 -3.57628e-07 18.8076 0.191616C16.1542 0.243271 13.5291 0.747311 11.0458 1.68197C8.92025 2.50167 6.98983 3.75594 5.37835 5.36431C3.76687 6.97267 2.50992 8.89962 1.68814 11.0215C0.754526 13.5041 0.250962 16.1272 0.199023 18.7784C0.0462017 22.1921 0 23.2743 0 31.9432C0 40.6086 -1.49012e-08 41.7121 0.199023 45.108C0.252332 47.7622 0.753442 50.381 1.68814 52.8685C2.51223 54.9896 3.7704 56.9158 5.38227 58.5239C6.99414 60.1321 8.92426 61.3868 11.0493 62.208C13.528 63.1774 16.1541 63.7175 18.8147 63.8048C22.2372 63.9539 23.3212 64 32 64C40.6788 64 41.7912 64 45.1852 63.8048C47.8404 63.7509 50.4673 63.2482 52.9543 62.318C55.0787 61.4955 57.008 60.2398 58.6192 58.6311C60.2304 57.0224 61.488 55.096 62.3119 52.9749C63.2466 50.491 63.7477 47.8723 63.801 45.218C63.9538 41.8044 64 40.7221 64 32.0532C64 23.3843 64 22.2843 63.801 18.8884C63.7596 16.1997 63.2534 13.5383 62.3048 11.0215ZM57.976 44.8454C57.9531 46.8904 57.5792 48.9163 56.8707 50.8352C56.337 52.2151 55.5199 53.4682 54.472 54.5138C53.4242 55.5595 52.1687 56.3745 50.7863 56.9066C48.8857 57.6108 46.8782 57.9841 44.8512 58.0102C41.4749 58.1663 40.5224 58.2054 31.865 58.2054C23.2004 58.2054 22.3154 58.2054 18.8752 58.0102C16.8491 57.9854 14.8426 57.6121 12.9436 56.9066C11.5564 56.3778 10.2959 55.5642 9.2435 54.5184C8.19113 53.4725 7.37036 52.2177 6.8343 50.8352C6.13575 48.937 5.7621 46.9349 5.72901 44.9128C5.57619 41.5418 5.54065 40.5908 5.54065 31.9468C5.54065 23.2992 5.54065 22.4156 5.72901 18.9772C5.75198 16.9333 6.12583 14.9086 6.8343 12.9909C7.91826 10.1912 10.1395 7.98758 12.9436 6.91595C14.8435 6.21385 16.8495 5.84063 18.8752 5.81237C22.255 5.65979 23.2039 5.61721 31.865 5.61721C40.526 5.61721 41.4145 5.61721 44.8512 5.81237C46.8784 5.83672 48.8862 6.21005 50.7863 6.91595C52.1686 7.44918 53.4239 8.26508 54.4717 9.31126C55.5195 10.3574 56.3367 11.6108 56.8707 12.9909C57.5693 14.8892 57.9429 16.8912 57.976 18.9133C58.1288 22.2879 58.1679 23.2353 58.1679 31.8829C58.1679 40.5269 58.1679 41.4566 58.0151 44.849H57.976V44.8454Z" fill="white"/>
</g>
<defs>
<clipPath id="clip0_10_64">
<rect width="64" height="64" fill="white"/>
</clipPath>
</defs>
</svg>
