<svg width="64" height="64" viewBox="0 0 64 64" fill="none" xmlns="http://www.w3.org/2000/svg">
<path d="M41.8334 0H22.2C4.26659 0 0 4.26659 0 22.1666V41.8C0 59.7332 4.23341 64 22.1666 64H41.8C59.7334 64 64 59.7666 64 41.8332V22.2C64 4.26659 59.7666 0 41.8334 0ZM51.6666 45.6666H47C45.2334 45.6666 44.7 44.2332 41.5334 41.0666C38.7666 38.4 37.6 38.0666 36.9 38.0666C35.9334 38.0666 35.6666 38.3332 35.6666 39.6666V43.8666C35.6666 45 35.3 45.6666 32.3334 45.6666C29.4546 45.4732 26.663 44.5986 24.1884 43.1151C21.7138 41.6315 19.6271 39.5812 18.1 37.1332C14.4747 32.6209 11.9523 27.325 10.7334 21.6666C10.7334 20.9666 11 20.3332 12.3334 20.3332H17C18.2 20.3332 18.6334 20.8666 19.1 22.1C21.3666 28.7666 25.2334 34.5666 26.8 34.5666C27.4 34.5666 27.6666 34.3 27.6666 32.8V25.9332C27.4666 22.8 25.8 22.5332 25.8 21.4C25.8219 21.101 25.9595 20.8224 26.1836 20.6232C26.4077 20.424 26.7005 20.32 27 20.3332H34.3334C35.3334 20.3332 35.6666 20.8332 35.6666 22.0332V31.3C35.6666 32.3 36.1 32.6332 36.4 32.6332C37 32.6332 37.4666 32.3 38.5666 31.2C40.9304 28.3174 42.8618 25.1059 44.3 21.6666C44.4468 21.2528 44.725 20.8984 45.0922 20.6576C45.4594 20.4168 45.8954 20.3029 46.3334 20.3332H51C52.4 20.3332 52.7 21.0332 52.4 22.0332C50.702 25.8358 48.6011 29.4454 46.1334 32.8C45.6334 33.5666 45.4334 33.9666 46.1334 34.8666C46.6 35.5666 48.2334 36.9332 49.3334 38.2332C50.9334 39.8292 52.2619 41.6758 53.2666 43.7C53.6666 45 53 45.6666 51.6666 45.6666Z" fill="white"/>
</svg>
