<svg width="64" height="64" viewBox="0 0 64 64" fill="none" xmlns="http://www.w3.org/2000/svg">
<path d="M61.5054 13.8629C59.1952 11.1192 54.93 10 46.7842 10H17.2152C8.88299 10 4.54544 11.1914 2.24392 14.1125C0 16.9606 0 21.1571 0 26.9651V38.0351C0 49.2871 2.6624 55 17.2152 55H46.7844C53.8484 55 57.7627 54.0124 60.295 51.5911C62.892 49.108 64 45.0539 64 38.0351V26.9651C64 20.84 63.8264 16.6188 61.5054 13.8629ZM41.0882 34.0284L27.661 41.0396C27.3608 41.1963 27.0326 41.2741 26.7047 41.2741C26.3335 41.2741 25.9631 41.1743 25.6351 40.9758C25.0174 40.6019 24.6402 39.933 24.6402 39.2114V25.2341C24.6402 24.5138 25.0164 23.8455 25.6328 23.4714C26.2495 23.0972 27.0165 23.0716 27.6563 23.4037L41.0835 30.3697C41.7666 30.7241 42.1956 31.4287 42.1966 32.1974C42.1975 32.9668 41.7703 33.6724 41.0882 34.0284Z" fill="white"/>
</svg>
