<svg width="1898" height="448" viewBox="0 0 1898 448" fill="none" xmlns="http://www.w3.org/2000/svg">
<path d="M1729.5 346H1665V296.542C1696.49 292.818 1721 265.975 1721 233.5C1721 177.054 1666.54 66.827 1664.22 62.162C1662.95 59.612 1660.35 58 1657.5 58C1654.65 58 1652.05 59.612 1650.78 62.162C1650.64 62.447 1636.49 91.007 1622.53 125.971C1611.46 153.726 1603.58 177.618 1598.95 197.46L1509.18 146.964C1506.89 145.68 1504.11 145.68 1501.82 146.964L1449 176.676V169H1449.5C1453.64 169 1457 165.642 1457 161.5C1457 157.358 1453.64 154 1449.5 154H1401.5C1397.36 154 1394 157.358 1394 161.5C1394 165.642 1397.36 169 1401.5 169H1402V203.114L1394.49 207.34C1392.89 200.721 1391.03 193.885 1388.94 187.221C1378.59 154.1 1366.99 138 1353.5 138C1340.01 138 1328.41 154.1 1318.06 187.22C1310.61 211.042 1306 237.057 1306 247.5C1306 268.154 1323.36 285.326 1346 288.478V346H1281.5C1277.36 346 1274 349.358 1274 353.5C1274 357.642 1277.36 361 1281.5 361H1729.5C1733.64 361 1737 357.642 1737 353.5C1737 349.358 1733.64 346 1729.5 346ZM1522 298H1521.5C1517.36 298 1514 301.358 1514 305.5C1514 309.642 1517.36 313 1521.5 313H1522V346H1489V265H1522V298ZM1537 257.5C1537 253.358 1533.64 250 1529.5 250H1481.5C1477.36 250 1474 253.358 1474 257.5V346H1393V270.519C1396.91 265.409 1399.56 259.501 1400.55 253.139L1505.5 194.105L1594.96 244.426C1595.32 246.508 1595.79 248.555 1596.35 250.563C1595.47 250.202 1594.51 250 1593.5 250H1561.5C1557.36 250 1554 253.358 1554 257.5V313.5C1554 317.642 1557.36 321 1561.5 321H1593.5C1597.64 321 1601 317.642 1601 313.5V262.426C1605.14 270.492 1610.96 277.557 1618 283.164V346H1537V257.5H1537ZM1586 274H1569V265H1586V274ZM1569 289H1586V306H1569V289ZM1633 292.078C1638.34 294.318 1644.05 295.837 1650 296.542V346H1633V292.078ZM1657.5 82.943C1672.22 114.627 1706 191.887 1706 233.5C1706 257.693 1688.2 277.802 1665 281.418V257.503C1665 257.501 1665 257.5 1665 257.498V236.607L1686.8 214.804C1689.73 211.875 1689.73 207.126 1686.8 204.198C1683.87 201.269 1679.13 201.269 1676.2 204.198L1665 215.394V201.5C1665 197.358 1661.64 194 1657.5 194C1653.36 194 1650 197.358 1650 201.5V233.497C1650 233.499 1650 233.5 1650 233.502V239.393L1638.8 228.196C1635.87 225.267 1631.13 225.267 1628.2 228.196C1625.27 231.125 1625.27 235.874 1628.2 238.802L1650 260.606V281.418C1626.81 277.802 1609 257.693 1609 233.5C1609 191.887 1642.78 114.627 1657.5 82.943ZM1417 169H1434V185.114L1417 194.677V169ZM1505.5 162.105L1595.86 212.93C1595.06 217.884 1594.52 222.511 1594.23 226.808L1509.18 178.964C1506.89 177.68 1504.11 177.68 1501.82 178.964L1400.06 236.209C1399.52 232.197 1398.77 227.618 1397.82 222.675L1505.5 162.105ZM1321 247.5C1321 239.562 1325.05 215.121 1332.38 191.696C1342.3 159.952 1350.99 153 1353.5 153C1356.01 153 1364.7 159.952 1374.63 191.696C1381.95 215.121 1386 239.562 1386 247.5C1386 260.007 1375.32 270.511 1361 273.28V249.5C1361 245.358 1357.64 242 1353.5 242C1349.36 242 1346 245.358 1346 249.5V273.28C1331.69 270.511 1321 260.007 1321 247.5ZM1361 288.478C1367.13 287.624 1372.88 285.743 1378 283.04V346H1361V288.478Z" fill="#58845C" fill-opacity="0.5"/>
<path d="M1449.5 250H1417.5C1413.36 250 1410 253.358 1410 257.5V313.5C1410 317.642 1413.36 321 1417.5 321H1449.5C1453.64 321 1457 317.642 1457 313.5V257.5C1457 253.358 1453.64 250 1449.5 250ZM1442 265V274H1425V265H1442ZM1425 306V289H1442V306H1425Z" fill="#58845C" fill-opacity="0.5"/>
</svg>
