<svg width="1737" height="784" viewBox="0 0 1737 784" fill="none" xmlns="http://www.w3.org/2000/svg">
<path d="M447.808 152C412.061 152 380.05 172.396 364.5 203.39C348.95 172.396 316.939 152 281.192 152C229.806 152 188 193.816 188 245.215C188 289.04 228.494 327.97 261.031 359.251L359.746 454.15C361.091 455.384 362.795 456 364.5 456C366.21 456 367.919 455.38 369.265 454.139L467.968 359.251C500.506 327.97 541 289.04 541 245.215C541 193.816 499.194 152 447.808 152ZM217.725 199.955L233.892 183.784C239.103 178.571 246.54 176.254 253.79 177.594L258.252 178.416L302.539 192.422C302.681 192.467 302.825 192.507 302.97 192.543C307.847 193.75 307.847 195.314 307.847 196.826C307.847 197.192 307.782 197.86 307.351 198.231C306.823 198.684 305.445 199.042 303.156 198.7L286.298 195.924C283.888 195.527 281.442 196.41 279.84 198.259C278.239 200.107 277.713 202.653 278.451 204.985L278.495 205.126C278.835 206.202 279.429 207.181 280.227 207.979L320.858 248.619C321.852 249.614 321.852 251.233 320.859 252.227C319.862 253.223 318.245 253.222 317.25 252.227C317.247 252.224 317.244 252.222 317.242 252.219C317.239 252.216 317.237 252.213 317.234 252.21L288.589 223.751C285.834 221.014 281.38 221.028 278.644 223.784C275.907 226.54 275.922 230.993 278.678 233.731L307.301 262.168C307.303 262.17 307.305 262.172 307.306 262.174L318.304 273.173C318.954 273.823 319.052 274.583 319.052 274.977C319.052 275.371 318.954 276.131 318.304 276.781C317.654 277.431 316.896 277.528 316.501 277.528C316.107 277.528 315.347 277.431 314.698 276.78L307.922 270.003L273.043 235.115C270.296 232.369 265.845 232.369 263.098 235.115C260.352 237.862 260.352 242.315 263.098 245.063L297.977 279.95L297.985 279.957C298.971 280.953 298.969 282.565 297.978 283.558C296.983 284.552 295.365 284.553 294.37 283.558L271.932 261.115L255.935 245.116C253.189 242.369 248.738 242.369 245.99 245.116C243.244 247.863 243.244 252.316 245.99 255.063L261.982 271.059C261.983 271.061 261.984 271.061 261.985 271.063L261.994 271.071C262.636 271.72 262.733 272.474 262.733 272.867C262.733 273.261 262.636 274.02 261.986 274.671C261.335 275.321 260.577 275.418 260.183 275.418C259.789 275.418 259.03 275.321 258.38 274.67L221.057 237.338C220.926 237.208 220.79 237.082 220.65 236.963C220.547 236.875 210.37 227.887 209.935 216.843C209.703 210.954 212.252 205.429 217.725 199.955ZM460.074 346.719L443.907 362.891C438.661 368.138 433.371 370.697 427.756 370.697C427.536 370.697 427.314 370.693 427.094 370.685C415.983 370.29 406.98 360.048 406.907 359.964C406.788 359.824 406.662 359.688 406.532 359.558L369.209 322.226C368.559 321.576 368.462 320.816 368.462 320.422C368.462 320.027 368.559 319.268 369.209 318.618C369.861 317.969 370.62 317.872 371.015 317.872C371.41 317.872 372.169 317.969 372.818 318.618C372.819 318.62 372.82 318.621 372.822 318.622L388.813 334.618C390.187 335.991 391.986 336.678 393.786 336.678C395.585 336.678 397.385 335.991 398.758 334.618C401.504 331.871 401.504 327.417 398.758 324.671L382.762 308.671L360.324 286.228C359.33 285.232 359.33 283.614 360.324 282.62C361.318 281.626 362.935 281.624 363.931 282.618L363.932 282.619L398.811 317.506C400.184 318.88 401.983 319.567 403.783 319.567C405.582 319.567 407.382 318.879 408.755 317.506C411.501 314.76 411.501 310.306 408.755 307.56L373.876 272.672C373.875 272.671 373.874 272.67 373.873 272.668L367.1 265.894C366.105 264.899 366.105 263.281 367.099 262.286C368.094 261.292 369.712 261.291 370.707 262.286L381.683 273.265C381.686 273.268 381.689 273.271 381.692 273.274L409.436 301.217C410.811 302.602 412.617 303.295 414.426 303.295C416.217 303.295 418.009 302.614 419.381 301.252C422.136 298.515 422.152 294.061 419.415 291.305L391.666 263.356C391.664 263.354 391.661 263.352 391.658 263.349C391.655 263.346 391.652 263.342 391.649 263.339L391.64 263.33C390.998 262.682 390.9 261.928 390.9 261.534C390.9 261.139 390.998 260.38 391.648 259.73C392.298 259.08 393.056 258.983 393.451 258.983C393.845 258.983 394.605 259.08 395.254 259.731L435.885 300.372C436.686 301.173 437.667 301.768 438.747 302.108L438.888 302.152C441.218 302.885 443.762 302.357 445.606 300.756C447.451 299.155 448.334 296.711 447.937 294.301L445.161 277.437C444.818 275.148 445.177 273.771 445.63 273.244C446 272.812 446.67 272.747 447.034 272.747C448.546 272.747 450.11 272.747 451.317 277.626C451.353 277.771 451.393 277.914 451.438 278.056L465.44 322.352L466.264 326.817C467.599 334.067 465.286 341.507 460.074 346.719ZM480.5 327.198C480.401 326.22 480.276 325.243 480.096 324.267L479.284 319.86C479.232 319.443 479.141 319.025 479.01 318.611L464.913 274.018C461.514 260.681 452.266 258.682 447.037 258.682C442.31 258.682 437.91 260.649 434.964 264.079C433.046 266.312 430.995 269.994 430.96 275.552L405.2 249.787C402.063 246.648 397.89 244.92 393.452 244.92C389.015 244.92 384.842 246.649 381.705 249.787C381.09 250.402 380.528 251.057 380.024 251.746C373.509 245.869 363.427 246.069 357.155 252.343C352.326 257.174 351.097 264.261 353.468 270.241C352.369 270.913 351.33 271.725 350.379 272.675C343.902 279.154 343.902 289.697 350.379 296.177L361.206 307.005C360.523 307.506 359.875 308.063 359.266 308.672C356.127 311.811 354.399 315.984 354.399 320.423C354.399 324.863 356.127 329.036 359.265 332.175L396.43 369.348C398.071 371.191 408.204 381.97 422.348 384.312C397.522 408.529 374.21 430.346 364.491 439.385C352.432 428.203 319.301 397.236 286.164 364.091C281.331 359.257 276.204 354.328 270.776 349.11C240.164 319.678 202.064 283.049 202.064 245.215C202.064 242.433 202.21 239.686 202.491 236.978C206.168 242.72 210.206 246.497 211.269 247.444L248.434 284.617C251.572 287.756 255.744 289.485 260.182 289.485C264.62 289.485 268.793 287.756 271.93 284.618C272.539 284.008 273.096 283.359 273.597 282.677L284.424 293.507C287.662 296.746 291.917 298.366 296.171 298.366C300.426 298.366 304.681 296.746 307.92 293.507C308.869 292.559 309.678 291.523 310.348 290.425C312.279 291.194 314.359 291.596 316.499 291.596C320.938 291.596 325.11 289.868 328.246 286.729C331.386 283.591 333.114 279.417 333.114 274.978C333.114 270.828 331.603 266.91 328.843 263.853C329.528 263.353 330.184 262.793 330.803 262.174C337.28 255.695 337.28 245.153 330.803 238.673L305.043 212.907C310.598 212.871 314.281 210.82 316.513 208.903C319.943 205.956 321.909 201.555 321.909 196.827C321.909 191.596 319.91 182.347 306.577 178.946L268.886 167.026C272.897 166.397 277.007 166.068 281.192 166.068C317.094 166.068 348.555 190.292 357.701 224.976C358.514 228.065 361.307 230.216 364.5 230.216C367.693 230.216 370.486 228.065 371.299 224.976C380.445 190.292 411.906 166.068 447.808 166.068C491.439 166.067 526.936 201.573 526.936 245.215C526.936 274.14 504.668 302.36 480.5 327.198Z" fill="#58845C" fill-opacity="0.5"/>
<path d="M510.836 237C506.879 237 503.671 240.134 503.671 243.999C503.671 250.407 502.575 256.687 500.411 262.666C499.093 266.311 501.049 270.309 504.779 271.598C505.569 271.871 506.374 272 507.167 272C510.118 272 512.882 270.205 513.922 267.331C516.628 259.85 518 252.001 518 243.999C518 240.134 514.792 237 510.836 237Z" fill="#58845C" fill-opacity="0.5"/>
<path d="M507.006 230C507.779 230 508.566 229.871 509.336 229.598C512.976 228.31 514.885 224.311 513.599 220.666C503.745 192.754 477.248 174 447.664 174C431.93 174 417.07 179.111 404.691 188.78C401.647 191.158 401.104 195.556 403.479 198.604C405.855 201.652 410.248 202.195 413.292 199.817C423.191 192.086 435.076 187.999 447.664 187.999C471.333 187.999 492.532 203.002 500.414 225.331C501.429 228.205 504.127 230 507.006 230Z" fill="#58845C" fill-opacity="0.5"/>
<path d="M294.27 333.998C291.416 331.289 286.844 331.342 284.057 334.113C281.269 336.884 281.322 341.327 284.175 344.034L295.731 355.002C297.135 356.336 298.957 357 300.777 357C302.654 357 304.528 356.294 305.943 354.887C308.731 352.116 308.678 347.674 305.825 344.966L294.27 333.998Z" fill="#58845C" fill-opacity="0.5"/>
<path d="M313.006 362.125C310.287 364.913 310.339 369.381 313.122 372.105L361.031 418.991C362.402 420.332 364.179 421 365.954 421C367.785 421 369.614 420.29 370.994 418.875C373.713 416.087 373.661 411.619 370.878 408.895L322.969 362.009C320.185 359.285 315.724 359.338 313.006 362.125Z" fill="#58845C" fill-opacity="0.5"/>
</svg>
