<svg width="1898" height="371" viewBox="0 0 1898 371" fill="none" xmlns="http://www.w3.org/2000/svg">
<path d="M1123.57 267.057L1127.54 265.854C1135.34 263.49 1139.77 255.205 1137.4 247.389L1065.76 10.8757C1065.63 10.4313 1062.28 0.0555553 1046.33 4.88889C1027.74 10.5178 1036.09 67.0591 1044.45 94.6585C1054.5 127.837 1072.56 155.669 1075.86 160.592L1105.11 257.166C1107.48 264.983 1115.76 269.421 1123.57 267.057ZM1098.91 158.533L1126.79 250.601C1127.39 252.561 1126.28 254.638 1124.32 255.232L1120.35 256.435C1118.39 257.027 1116.31 255.917 1115.72 253.955L1087.83 161.887L1098.91 158.533ZM1095.69 147.91L1083.29 151.667C1077.8 143.025 1063.35 118.83 1055.06 91.448C1043.85 54.4529 1044.9 19.2641 1049.68 15.471C1052.97 14.4968 1054.76 14.6683 1055.4 14.8846L1095.69 147.91ZM811.506 361.577C806.124 363.207 800.565 362.9 796.635 360.756C794.002 359.319 792.134 357.072 791.376 354.43L749.423 208.205C738.6 205.963 729.195 198.123 725.563 186.965C725.526 186.856 725.492 186.743 725.46 186.627L725.46 186.625C725.459 186.622 725.458 186.618 725.456 186.613C725.456 186.613 725.455 186.609 725.454 186.606L725.452 186.599C725.451 186.595 725.45 186.592 725.448 186.588L725.447 186.583C725.445 186.577 725.444 186.574 725.443 186.569L708.255 118.896C707.5 115.926 709.316 112.921 712.259 112.155C715.224 111.402 718.241 113.202 718.996 116.172L734.757 178.214L740.676 176.421L723.428 114.435C722.607 111.483 724.355 108.387 727.277 107.604C730.224 106.783 733.282 108.513 734.102 111.465L751.283 173.208L757.088 171.45L737.121 110.551C736.166 107.639 737.748 104.504 740.657 103.552C743.545 102.515 746.696 104.185 747.65 107.099L767.695 168.237L773.614 166.444L752.299 106.087C751.279 103.197 752.79 100.025 755.676 99.0066C758.553 97.9765 761.727 99.5028 762.747 102.393L785.997 168.227C785.998 168.231 785.999 168.233 786 168.236C786.045 168.366 786.086 168.494 786.122 168.626C789.291 179.925 785.817 191.664 778.057 199.536L824.291 344.464C825.126 347.082 824.819 349.987 823.426 352.645C821.344 356.606 816.889 359.946 811.506 361.577ZM801.922 351.013C802.622 351.408 804.957 351.963 808.289 350.954C811.621 349.945 813.256 348.189 813.619 347.47L768.609 206.38L761.081 208.66L801.922 351.013ZM738.594 188.648C743.524 195.942 752.85 199.558 761.627 196.899C770.405 194.24 776.155 186.058 776.211 177.255L765.74 180.426C765.733 180.428 765.726 180.43 765.716 180.434L749.092 185.469C749.081 185.47 749.074 185.472 749.065 185.477L738.594 188.648ZM958.465 297.904C893.122 317.696 823.833 280.55 804.009 215.098C784.185 149.649 821.217 80.299 886.56 60.5074C951.903 40.7158 1021.19 77.8617 1041.02 143.311C1060.84 208.763 1023.81 278.112 958.465 297.904ZM889.777 71.13C830.282 89.1506 796.564 152.293 814.614 211.886C832.664 271.479 895.752 305.302 955.247 287.281C1014.74 269.261 1048.46 206.117 1030.41 146.524C1012.36 86.9305 949.273 53.1094 889.777 71.13ZM948.757 265.854C901.058 280.301 850.478 253.185 836.007 205.408C821.536 157.631 848.569 107.007 896.268 92.5594C943.967 78.1119 994.547 105.228 1009.02 153.005C1023.49 200.782 996.456 251.406 948.757 265.854ZM899.485 103.18C857.633 115.857 833.915 160.275 846.612 202.194C859.309 244.113 903.689 267.905 945.539 255.229C987.389 242.553 1011.11 198.134 998.412 156.215C985.716 114.297 941.335 90.5043 899.485 103.18Z" fill="#58845C" fill-opacity="0.5"/>
</svg>
