<svg width="1989" height="730" viewBox="0 0 1989 730" fill="none" xmlns="http://www.w3.org/2000/svg">
<path d="M1662.25 707.078C1655 711.172 1646.64 713.219 1637.17 713.219C1626.33 713.219 1617.66 709.922 1611.16 703.328C1604.66 696.734 1601.41 687.859 1601.41 676.703C1601.41 665.422 1605 656.188 1612.19 649C1619.41 641.781 1628.69 638.172 1640.03 638.172C1647.84 638.172 1654.53 639.375 1660.09 641.781V653.312C1654.38 649.781 1647.45 648.016 1639.33 648.016C1631.67 648.016 1625.41 650.594 1620.53 655.75C1615.66 660.906 1613.22 667.672 1613.22 676.047C1613.22 684.672 1615.45 691.406 1619.92 696.25C1624.42 701.062 1630.5 703.469 1638.16 703.469C1643.22 703.469 1647.48 702.531 1650.95 700.656V682.469H1635.53V672.906H1662.25V707.078ZM1733.45 681.906C1733.45 702.781 1723.91 713.219 1704.81 713.219C1686.5 713.219 1677.34 703.125 1677.34 682.938V639.391H1688.59V682.656C1688.59 696.438 1694.28 703.328 1705.66 703.328C1716.69 703.328 1722.2 696.672 1722.2 683.359V639.391H1733.45V681.906ZM1805.88 712H1792.7L1780.89 692.219C1778.58 688.344 1776.47 685.703 1774.56 684.297C1772.69 682.891 1770.53 682.188 1768.09 682.188H1762V712H1750.75V639.391H1773.86C1781.39 639.391 1787.2 641.094 1791.3 644.5C1795.42 647.875 1797.48 652.672 1797.48 658.891C1797.48 663.766 1796.06 667.938 1793.22 671.406C1790.38 674.875 1786.41 677.297 1781.31 678.672V678.859C1784.56 679.984 1788.2 683.797 1792.23 690.297L1805.88 712ZM1762 648.672V672.859H1771.98C1776.14 672.859 1779.45 671.656 1781.92 669.25C1784.42 666.844 1785.67 663.781 1785.67 660.062C1785.67 652.469 1781.17 648.672 1772.17 648.672H1762ZM1825.98 648.578V648.625V702.766V702.812V712H1814.73V702.812V702.766V648.625V648.578V639.391H1825.98V648.578ZM1903.09 712H1890.72L1883.92 693.109H1854.86L1848.39 712H1836.02L1863.39 639.391H1875.91L1903.09 712ZM1880.78 683.781L1870.66 655.141C1870.28 654.109 1869.91 652.281 1869.53 649.656H1869.2C1868.92 651.812 1868.53 653.609 1868.03 655.047L1857.95 683.781H1880.78Z" fill="#58845C" fill-opacity="0.5"/>
<path d="M1791.06 593H1712.18C1706.69 593 1702.25 597.699 1702.25 603.5C1702.25 609.3 1706.69 614 1712.18 614H1791.06C1796.54 614 1800.99 609.3 1800.99 603.5C1800.99 597.699 1796.54 593 1791.06 593Z" fill="#58845C" fill-opacity="0.5"/>
<path d="M1751.63 346C1706.82 346 1670.37 380.706 1670.37 423.366C1670.37 435 1673.01 446.181 1678.23 456.606C1678.34 456.829 1678.45 457.048 1678.56 457.267L1739.96 570.446C1742.22 574.6 1746.72 577.21 1751.63 577.21C1756.54 577.21 1761.04 574.601 1763.29 570.446L1824.67 457.298C1824.78 457.103 1824.88 456.906 1824.97 456.707C1830.23 446.252 1832.89 435.037 1832.89 423.366C1832.89 380.706 1796.44 346 1751.63 346ZM1751.63 463.861C1728.17 463.861 1709.09 445.695 1709.09 423.366C1709.09 401.038 1728.17 382.872 1751.63 382.872C1775.08 382.872 1794.16 401.038 1794.16 423.366C1794.16 445.695 1775.08 463.861 1751.63 463.861Z" fill="#58845C" fill-opacity="0.5"/>
<path d="M1584.57 546.562C1605.08 557.594 1619.92 530.925 1599.67 520.031L1524.89 479.798L1523.18 342.854L1494.63 327.489L1467.03 448.019L1409.93 417.296L1404.56 383.105L1381.98 370.955L1372.17 413.939L1338.47 444.076L1361.06 456.226L1394.49 443.236L1451.6 473.959L1357.55 557.15L1386.1 572.514L1508.12 505.528L1584.57 546.562Z" fill="#58845C" fill-opacity="0.5"/>
<path d="M1327 385C1253.02 335 1300.26 186.081 1142.58 165.068C984.906 144.054 1027.46 -44.1427 785.725 35.568C543.989 115.279 489.82 31.0058 296.545 94.7527C103.269 158.5 54.8204 140 22 101" stroke="#58845C" stroke-opacity="0.5" stroke-width="30" stroke-linecap="square" stroke-linejoin="round" stroke-dasharray="60 90"/>
</svg>
