<svg width="1126" height="580" viewBox="0 0 1126 580" fill="none" xmlns="http://www.w3.org/2000/svg">
<path d="M771.21 331.127C757.221 303.959 733.49 283.866 704.387 274.547C675.285 265.228 644.296 267.8 617.127 281.789C589.96 295.779 569.866 319.51 560.547 348.613C551.228 377.715 553.801 408.704 567.789 435.872C581.779 463.04 605.51 483.134 634.613 492.453C663.715 501.772 694.704 499.199 721.872 485.21C749.04 471.221 769.134 447.49 778.453 418.387C787.772 389.284 785.199 358.295 771.21 331.127ZM718.592 478.84C693.126 491.953 664.077 494.364 636.798 485.629C609.518 476.894 587.273 458.058 574.16 432.592C561.047 407.126 558.636 378.077 567.371 350.798C576.106 323.518 594.941 301.273 620.407 288.16C645.874 275.047 674.923 272.636 702.202 281.371C729.482 290.106 751.727 308.941 764.84 334.408C777.953 359.874 780.364 388.922 771.629 416.202C762.894 443.482 744.059 465.727 718.592 478.84ZM693.888 319.084L687.064 316.899L692.899 298.531L696.375 299.567L699.776 300.732L693.888 319.084ZM645.112 447.915L651.936 450.1L645.956 468.428L642.624 467.432L639.202 466.259L645.112 447.915ZM602.899 365.936L584.535 360.087L585.567 356.624L586.741 353.198L605.084 359.112L602.899 365.936ZM754.456 406.942L753.433 410.375L752.273 413.762L733.916 407.888L736.101 401.064L754.456 406.942ZM649.788 309.572L647.283 298.24L650.759 297.403L654.357 296.692L656.79 308.053L649.788 309.572ZM689.204 457.431L691.717 468.76L688.209 469.603L684.664 470.304L682.202 458.951L689.204 457.431ZM594.047 396.209L595.567 403.211L584.24 405.717L583.385 402.158L582.69 398.633L594.047 396.209ZM744.951 370.787L743.431 363.785L754.76 361.283L755.605 364.796L756.301 368.317L744.951 370.787ZM728.483 334.767L723.666 329.463L732.256 321.64L734.712 324.243L737.049 326.931L728.483 334.767ZM610.513 432.235L615.33 437.539L606.732 445.347L604.236 442.698L601.853 439.951L610.513 432.235ZM723.538 437.674L731.352 446.263L728.763 448.706L726.063 451.053L718.234 442.491L723.538 437.674ZM612.979 315.911L620.77 324.516L615.466 329.333L607.671 320.713L610.369 318.175L612.979 315.911ZM680.19 386.923C681.696 382.221 679.924 377.244 676.155 374.463L691.557 326.363L684.733 324.178L669.331 372.278C664.648 372.352 660.315 375.374 658.809 380.076C656.922 385.971 660.182 392.302 666.077 394.19C668.783 395.056 671.58 394.835 673.998 393.776L707.992 431.183L713.294 426.364L679.306 388.963C679.661 388.326 679.959 387.644 680.19 386.923ZM668.262 387.367C666.13 386.684 664.95 384.394 665.633 382.262C666.316 380.13 668.606 378.95 670.738 379.633C672.87 380.316 674.049 382.606 673.367 384.738C672.684 386.87 670.394 388.049 668.262 387.367ZM698.56 292.743C648.517 276.719 594.768 304.396 578.743 354.439C562.719 404.483 590.396 458.232 640.439 474.256C690.483 490.28 744.232 462.604 760.256 412.56C776.28 362.517 748.604 308.767 698.56 292.743ZM642.624 467.432C596.344 452.613 570.748 402.904 585.567 356.624C600.386 310.344 650.095 284.748 696.375 299.567C742.656 314.386 768.252 364.095 753.433 410.375C738.613 456.655 688.905 482.252 642.624 467.432Z" fill="#58845C" fill-opacity="0.5"/>
</svg>
